<?xml version='1.0' encoding='utf-8'?>
<svg xmlns="https://www.w3.org/2000/svg" version="1.1" id="Layer_1" x="0px" y="0px" viewBox="0 0 2604.051 497.534" enable-background="new 0 0 2604.051 497.534"> <path d="M22.025,461.05h2560V274.537c-9.733-4.587-21.414-6.84-31.6-2.413c-1.653-0.893-3.307-1.8-4.893-2.693 c-0.04-4.213-0.107-8.427-0.227-12.64c-1.6,0.107-3.16,0.213-4.68,0.32c-0.707-6.333-8.267-3.333-12.547-4.067 c-0.067-1.773-0.093-3.533-0.093-5.293c-5.72,0.093-11.44,0.173-17.133-0.093c-0.013-0.96-0.053-2.893-0.067-3.867 c-1.48-0.52-2.933-1.04-4.346-1.547c0-1.013-0.013-3.04-0.027-4.053c-3.72,0.093-7.414,0.187-11.107,0.213 c-0.413,0.36-1.227,1.067-1.64,1.427c-5.412-2.971-7.641,0.662-28.107,1.147c-0.133,2.267-0.293,4.52-0.333,6.787 c-4.4,0.307-8.8,0.24-13.147-0.307c0.213-5.2,0.213-10.413-0.187-15.6c-9.614,0.293-19.347-0.88-28.84,0.933 c-0.094,3.027,0,6.107-0.72,9.067c-3.493,0.787-7.093,0.867-10.6,1.253c-0.253,1.6-0.467,3.2-0.667,4.813 c-11.293,3.92-23.52,1.453-35.094,4.04c0.307,10.96,0.08,21.933,0,32.907c-4.973-0.013-9.866-0.773-14.613-2.173 c-0.16,0.68-0.467,2.04-0.627,2.72c-0.107-0.8-0.333-2.4-0.453-3.2c-3.84,1.933-8.053,2.8-12.307,2.067 c-1.12-0.933-2.28-1.773-3.48-2.52c-2.64,0.653-5,2.427-7.773,2.373c-55.827-1.336-49.243,0.875-54.934-4.347 c-0.36,0.893-1.066,2.693-1.427,3.587c-1.76-0.467-3.413-1.187-5.04-1.867c-0.68,0.44-2.04,1.333-2.72,1.773 c-5.4-0.013-10.8,0.04-16.173-0.053c-0.44-2.347-0.853-4.693-1.28-7.04c-0.853,0.067-2.547,0.213-3.4,0.293 c0.067,1.933,0.173,3.88,0.307,5.827c-5.294,1.274-41.685-0.25-48.92-0.333c-0.053-5.56-0.146-11.12-0.586-16.667 c-3.1-5.577,1.69-36.113-6-50.253c-3.293-7.187-1.573-15.36-3.733-22.813c-1.24-4.32-2.32-8.68-3.133-13.107 c-2.08-0.147-4.133-0.28-6.147-0.413c-0.453-3.12,0.64-6.867-1.587-9.427c-12.4-1.333-24.933,1.013-37.373,0.107 c-2.507-0.533-3.933-3.347-6.507-3.573c-0.279-0.02-47.437,0.937-50.907,1.133c-0.4,3-0.747,6-1.093,9.013 c-1.947,0.333-3.88,0.52-5.707,1.147c-2.693,9.28-5.44,18.787-5.08,28.587c0.08,6.6-5.213,11.813-5.16,18.413 c-0.137,9.24-3.692,47.207-3.32,55.6c-2.333-0.08-4.64-0.133-6.933-0.187c0.613-3.453-0.947-8.28,2.88-10.24 c0.013-0.453,0.053-1.347,0.067-1.787c-0.68-0.52-2.013-1.573-2.693-2.093c-0.587-7.853,1.28-15.947-1.16-23.6 c-9.906-1.067-19.96-2.507-28.88-7.24c-54.594-10.847-162.798-74.364-334.027-131.133c-35.64-12.17-128.872-35.522-148.8-36.987 c-3.728-1.344-46.283-9.41-59.173-10.56c-4.16-3.44-9.8-1.76-14.627-3.12c-4.653-1.267-9.413-1.893-14.2-2.027 c-3.787-0.12-6.747-3.187-10.56-3.16c-6.24-0.293-12.4-1.653-18.64-1.507c-4.133,0.107-7.96,2.053-12.067,2.053 c-16.373-2.253-32.973-2.013-49.373-4.133c-1-0.079-28.789-5.116-42.347-5.093c-2.413,2.44-5.8,2.453-8.987,2.347 c-0.48-0.587-1.427-1.787-1.907-2.387c-5.707,0.027-11.413-0.067-17.107,0.12c-4.867,2.04-10.16,1.427-15.107,0.04 c-2.333-1-4.467,0.467-6.56,1.293c-2.733-1.2-5.413-2.48-8.053-3.84c-1.48,1.747-2.973,3.48-4.453,5.213 c-0.56-0.48-1.68-1.44-2.24-1.907c-1.76-0.293-3.493-0.653-5.187-1.08c-4.693,2.56-10.16,2.88-15.333,2.133 c-3.867-0.76-7.28,1.68-10.893,2.56c-0.667-1.48-1.32-2.96-1.973-4.44c-6.28,0.347-12.573,0.787-18.827,1.467 c-6.756,10.779-12.393-5.559-47.8,7.507c-30.479-0.152-171.047,26.458-235.08,48.973 c-127.814,38.422-222.413,92.343-255.427,107.333c-28.649,14.041-75.507,35.12-75.507,35.12 c-12.653,6.52-27.147,8.693-39.587,15.653c-2.68,0.773-5.373,1.493-8.08,2.133c-0.467-5.853-0.72-11.88-3.173-17.32 c-4.185-9.099-0.579-16.704-8.28-35.787c-1.667-1.027-3.8-0.853-5.64-1.307c-0.4-2.68-0.773-5.36-1.12-8.04 c-20.314-3.67-8.697,1.922-31.893-2.013c-6.52,1.64-13.2,2.493-19.907,1.973c-0.067,2-0.133,4.013-0.187,6.013 c-1.733-0.013-3.453-0.04-5.173-0.067c-0.04-2.88-0.067-5.747-0.08-8.627c-3.4-1.293-6.987-2.267-10.653-1.72 c-8.92,0.88-18.013-0.467-26.813,1.547c-5.187,1.08-10.427-0.413-15.653-0.04c-0.08,2.907-0.16,5.827-0.267,8.747 c-2.093,0.387-4.2,0.733-6.227,1.36c-1.44,3.84-1.693,8-2.933,11.893c-2.52,6.947-0.373,14.773-3.867,21.467 c-4.96,8.588-5.521,55.821-5.573,65.333c-4.547,0.227-9.107,0.267-13.64-0.147c0.013-3.107,0.027-6.2,0.04-9.307 c-6.973,0.253-13.96,0.187-20.933-0.16c0.013,3.6,0,7.187,0,10.787c-4.12-0.027-8.253,0.12-12.32,0.84 c-7.64,1.333-15.493-0.413-23.08,1.427c-1.213-4.72-1.227-9.6-0.853-14.427c-1.613,0.04-3.227,0.093-4.827,0.147 c-0.733,4.853-1.533,9.707-1.813,14.613c-4.48,0.093-8.96,0.173-13.44,0.24c-0.587-3.4,1.28-8.067-1.627-10.56 c-5.573-0.48-11.187,0-16.773-0.293c0,0.92-0.027,2.76-0.027,3.68c-1.253,2.733-2.307,5.547-3.213,8.413 c-10-1.8-20.16-0.12-30.093,1.387c-0.52-4.16-1.413-8.253-2-12.387c0.827-0.093,2.467-0.267,3.293-0.347 c-0.067-0.907-0.2-2.693-0.267-3.587c-2.533,0.613-5.067,1.253-7.6,1.893c-0.04,2.333-0.067,4.667-0.107,7 c-0.64,0.56-1.92,1.68-2.56,2.24c-0.08,1.667-0.147,3.347-0.213,5.013c-5.293,0.093-10.6,0.16-15.893,0.027 c-0.08-0.813-0.24-2.44-0.32-3.253c-2.533-1.08-2.72-3.653-3.053-6.013c-1.387-0.067-2.773-0.12-4.16-0.173 c0.027,3.653-1.387,6.92-5.44,7.187c-0.387,0.76-1.147,2.253-1.533,3.013c-0.387-3.853-0.987-7.68-1.933-11.427 c-1.627-0.053-3.253-0.107-4.867-0.16c0,4.04-0.013,8.08-0.027,12.12c-6.227,0.04-12.453-0.013-18.667-0.04 c-0.067-1.013-0.187-3.013-0.24-4.013h-7.733c-0.053,2.067-0.093,4.147-0.147,6.227c-0.453-0.893-1.333-2.667-1.773-3.547 c-0.853,0.013-2.56,0.04-3.413,0.053c-1.213-3.453-1.773-7.08-1.92-10.733c-1.453,0.04-2.893,0.093-4.347,0.133 c-0.987,4.213-1.773,8.48-1.867,12.827c-2.227-0.96-4.56-0.68-6.827-0.013c0.04-0.533,0.12-1.6,0.16-2.133 c-3.533-0.76-7.08-1.413-10.667-1.813c-0.053-1.64-0.107-3.267-0.147-4.88c-5.08,0.2-10.107-0.6-15.147-1.027 c-1.613,1.827-2.893,3.92-4.4,5.84c-0.107,0.507-0.32,1.533-0.427,2.04c-1.213,1.347-2.427,2.68-3.64,4.027 c-0.933-0.907-1.733-1.933-2.387-3.04c-0.64-0.013-1.92-0.04-2.56-0.04c-0.6,1.213-1.213,2.44-1.827,3.667 c-5.813-1.827-11.72,0.56-17.587,0.693c-0.04-0.92-0.133-2.76-0.173-3.68c-1.613-1.853-3.52-3.573-4.333-5.947 c0.76-0.613,2.293-1.853,3.053-2.48c0.027-1.533,0.04-3.053,0.053-4.587c-3.44,0.387-7.067,1.213-8.747,4.627 c-4.56,0.92-11.52-2.213-13.88,3.093c-0.107-0.587-0.333-1.773-0.44-2.373c-0.813-0.573-2.427-1.72-3.24-2.293 c-0.88,0.2-2.627,0.613-3.507,0.813c-2.72-0.72-5.467-1.387-8.213-1.973c-0.44-0.307-1.293-0.92-1.733-1.213 c-4.413-0.8-8.84-1.587-13.333-1.84c-0.027-1-0.08-2.987-0.107-3.973c-2.227-0.467-4.48-0.867-6.733-1.213 c-1.733,3.88-6.333,2.667-9.733,3.16c-1.053,1.4-2.107,2.8-3.173,4.2c-0.107,1.627-0.227,3.253-0.347,4.88 c5.067,1.24,12.427,2.387,15.4-3.04c0.973,1.64,2,3.267,3.08,4.853c0.56,3.333,1.213,6.64,1.893,9.96 c-9.827,1.493-19.747,2.147-29.64,3.08V461.05z M2034.159,258.897c0.8-0.067,2.413-0.213,3.213-0.293 c0.947-5.32,5.067,0.013,6.56,2.187c2.784,2.928-2.434,7.193-5.52,19.573c0.2-1.947,0.413-3.893,0.707-5.827 c-2.28-0.373-4.573-0.56-6.84-0.68C2031.679,268.764,2032.692,263.764,2034.159,258.897z M1850.039,259.764 c-2.427,0.587-4.867,1.013-7.213,1.787c3.427-4.667,6.56-9.573,8.12-15.213C1850.879,250.817,1850.879,255.351,1850.039,259.764z M1851.199,233.524c-3.64,6.627-8.067,12.813-12.187,19.16c-1.04-1.747-1.773-3.68-1.64-5.733 c-0.704-37.066-1.016-30.123,3.413-37.413c3.84-5.4,6.613-11.493,10.813-16.627C1852.172,206.431,1852.332,220.044,1851.199,233.524 z M1876.025,277.711c1.093-2.2,1.787-5.08,4.387-6c2.467,0.547,1.88,3.813,2.8,5.64 C1880.812,277.511,1878.399,277.644,1876.025,277.711z M1919.879,318.124c-1.92-3.467-2.36-7.36-2.2-11.253 c2.08,0.013,4.187,0.027,6.307,0.04C1922.959,310.764,1921.452,314.471,1919.879,318.124z M1935.079,323.124 c-2.547-1.173-5.6-4.587-7.52-0.627c0.973-5.453,5.32-9.293,6.693-14.6c1.053-0.067,3.16-0.173,4.213-0.227 C1937.785,312.951,1940.265,319.511,1935.079,323.124z M1947.172,223.004c4.747,1.72,10.2,2.827,13.92,6.467 c0.2,4.667-2.16,9.24-4.813,12.933c-2.747,0.96-5.72,0.467-8.533,0.56C1947.625,236.297,1946.879,229.671,1947.172,223.004z M1938.025,264.217c-0.987,0.12-2.987,0.347-3.973,0.453c-0.16,4.907-0.253,10.547,4.733,13.213 c-7.387,0.067-14.76,0.227-22.12-0.227c-0.013-2.947,0-5.893,0.067-8.84c1.813-0.64,2.64-2.147,2.92-3.96 c-1.053-0.773-2.08-1.56-3.08-2.333c0,0,22.212-41.531,22.213-41.533C1940.399,235.391,1938.065,249.804,1938.025,264.217z M1915.919,248.417c-0.413-12.72-0.467-25.427-0.507-38.147c6.547,1.173,12.307,4.68,18.427,7.093 C1927.879,227.724,1921.772,237.991,1915.919,248.417z M1919.412,200.124c-1.72,1.867-4.253,2.24-6.52,2.92 c0.32-0.72,0.96-2.173,1.28-2.893c-1.44-1-2.96-1.88-4.64-2.293c-0.467-0.693-1.4-2.093-1.867-2.8 C1911.585,196.711,1915.372,198.724,1919.412,200.124z M1905.545,205.991c0.625,5.283-11.161,23.182-13.84,26.587 c0.253-11-0.293-22-0.36-33C1896.332,200.977,1901.372,202.817,1905.545,205.991z M1907.132,219.644 c0.667,8.227-0.173,16.467,0.267,24.707c0.227,11.613-1.853,23.933-9.32,33.133c-2.28,0.68-4.36-0.28-5.92-1.84 c3.853-0.44,2.973-3.28,2.08-5.88c0.613-0.493,1.84-1.48,2.453-1.973c-0.027-2.067-0.027-4.12,0-6.187 c-1-0.013-2.987-0.067-3.987-0.08c0.36-5.187-0.467-10.307-1.52-15.347C1898.199,238.431,1901.425,228.257,1907.132,219.644z M1883.559,247.004c-0.067,3.787-3.693,5.827-6.013,8.267c-4.013,6.947-7.067,14.467-11.68,21.08c-1.04,0.093-3.12,0.293-4.16,0.4 c0.08-3.573-0.573-7.467,1.4-10.68c0.08-0.693,0.24-2.08,0.32-2.773c-0.64-0.44-1.933-1.293-2.573-1.72 c0.96-3.2,0.92-6.547,0.68-9.84c-2.762-2.525-1.858-1.738-2.053-18.907c8.04-12.333,14.813-25.533,23.613-37.333 C1884.452,202.863,1883.642,243.278,1883.559,247.004z M1859.825,220.297c-0.533-11.6-0.4-23.227-0.267-34.84 c6.213,1.427,11.653,4.88,17.52,7.213C1872.425,202.497,1865.879,211.297,1859.825,220.297z M1868.625,177.311 c-1.12-0.213-3.333-0.627-4.453-0.827c-0.533,0.613-1.613,1.84-2.16,2.453c-1.84-0.627-3.64-1.267-5.4-1.973 c-0.92-3.08-4.293-4.333-5.32-7.36C1857.492,171.124,1862.892,174.644,1868.625,177.311z M1836.932,174.604 c3.933,1.467,7.707,3.387,11.733,4.68c1.28,2.04,1.92,4.467,0.293,6.533c-3.827,5.907-7.413,12.027-11.92,17.44 c-0.027-1.002-0.431-15.867-1.6-17.173C1835.239,182.191,1836.345,178.417,1836.932,174.604z M613.385,427.524 c-1.893,0.8-2.493,0.227-1.8-1.693C613.492,425.057,614.092,425.617,613.385,427.524z M613.639,367.351 c-1.253,1.693-2.707,3.213-3.947,4.907c-0.787,0.04-2.36,0.133-3.147,0.187c-1.067,1.04-2.133,2.08-3.187,3.133 c-1.387-1.293-2.773-2.573-4.16-3.84c-0.4-15.52-1.76-30.973-1.92-46.507c1.28-0.16,2.56-0.307,3.853-0.453 c0.474,1,3.623,7.268,15.173,42.92C615.639,367.617,614.305,367.444,613.639,367.351z M624.772,360.591 c-2.173-3.973-4.747-8.013-4.987-12.667c-3.373-8.107-8.973-15.68-9.52-24.667c4.693,0.013,9.387-0.067,14.08-0.133 c1.573,3.52,3.467,6.893,4.88,10.48c0.373,6.68-0.613,13.387,0.107,20.067C629.785,356.684,627.745,359.844,624.772,360.591z M725.719,430.777c-2.187,0.627-2.92-0.133-2.213-2.293C725.665,427.857,726.399,428.631,725.719,430.777z M1360.039,430.471 c-2.547-0.04-4.707-3.027-1.6-4.32C1360.559,425.604,1361.572,428.964,1360.039,430.471z M1530.385,362.564 c-0.307-0.72-0.933-2.16-1.24-2.88c4.88,0.733,9.533,2.48,14.24,3.947C1539.052,363.177,1534.625,363.591,1530.385,362.564z M1784.092,275.511c-0.973-2.32-0.867-4.893-1.2-7.333c0.653-0.36,1.96-1.067,2.613-1.427c0.56,0.627,1.653,1.88,2.2,2.507 c0.747,0.12,2.227,0.347,2.96,0.467c0.773,0.373,2.307,1.147,3.08,1.533c0.68,1.64,1.373,3.28,2.04,4.947 C1791.905,276.004,1787.772,276.924,1784.092,275.511z M1796.292,239.644c-2.747-2.067-5.907-3.427-9.013-4.787 c-0.2-1.027-0.587-3.107-0.787-4.147c3.12-5.147,6.027-10.467,10-15.027C1796.759,223.671,1796.679,231.671,1796.292,239.644z M1804.945,315.057c-1.64-0.867-1.573-1.787,0.2-2.773C1806.785,313.124,1806.719,314.057,1804.945,315.057z M1820.465,269.871 c2.92,1.64,7.307,2.773,7.28,6.907C1825.052,274.751,1822.625,272.431,1820.465,269.871z M1828.172,257.244 c-0.467-0.627-1.413-1.867-1.88-2.493c-0.92,0.413-2.76,1.253-3.68,1.68c-1.173-2.907-3.933-4.307-6.413-5.84 c3.813-7.133,8.16-14.133,12.24-21.187C1828.852,238.697,1828.039,247.964,1828.172,257.244z M1828.772,170.791 c2.119,8.81-0.705,10.434,0.347,41.493c0.636,6.798-16.258,29.488-19.667,33.88c-0.067,0.373-0.187,1.107-0.24,1.48 c-1.573-1.293-4.173-2.12-3.68-4.627c-0.347-13.347-1.053-26.72-0.52-40.08c6.107-10.067,13.12-19.653,19.427-29.627 C1825.372,171.924,1826.599,169.151,1828.772,170.791z M1820.812,166.831c2.72,1.24-0.067,4-0.973,5.533 c-5.093,6.693-9.147,14.227-15.08,20.227c-0.013-4.627,0.133-9.307-1.053-13.813c-0.52-6.213,0.2-12.48,0.067-18.707 C1809.785,161.271,1815.225,164.377,1820.812,166.831z M1809.892,152.084c-2.893-0.12-5.707-0.4-8.533-0.667 c-1.6-1.427-3.173-2.853-4.653-4.347C1801.465,147.097,1806.145,149.204,1809.892,152.084z M1782.012,150.537 c4.547,1.373,8.88,3.32,13.24,5.187c-1.742,7.671-11.075,19.184-13.12,21.12C1781.865,168.084,1781.999,159.311,1782.012,150.537z M1796.439,165.471c1.903,5.917,0.702,6.686,0.2,40c-4.827,6.4-8.773,13.467-14.213,19.4c-0.773-9.973,0.08-19.973-0.413-29.96 C1782.351,187.378,1778.53,188.613,1796.439,165.471z M1775.212,153.591c-0.172,35.662,4.429,30.375-19.44,61.973 c-0.947,1.813-3.013,1.387-4.653,1.293c-1-4.987-2.267-10.027-1.693-15.133c0.853-7.56-0.267-15.133-0.107-22.707 c1.814-5.89,17.383-23.061,22.787-32.467C1775.479,147.057,1775.065,151.057,1775.212,153.591z M1773.745,227.857 c-1.907-1.933-4.44-2.88-7.067-3.24c-2.36-1.453-4.76-2.827-7.12-4.227c4.507-7.6,9.733-14.733,14.667-22.053 C1775.065,208.191,1773.639,218.017,1773.745,227.857z M1749.132,137.457c6.48,1.613,12.56,4.507,18.733,7.04 c-5.187,8.24-11.227,15.88-17.053,23.653c-0.453-0.013-1.347-0.027-1.8-0.04C1748.839,157.911,1749.025,147.671,1749.132,137.457z M1750.652,257.844c-0.493-0.013-1.467-0.027-1.96-0.04c1.987-4.84,0.747-10.053,0.587-15.08c6.987,3.84,13.453,8.693,20.494,12.52 c2.413,1.2,5.907,1.787,6.2,5.093c-0.747,2-2.893,2.413-4.613,3.067c0,0.72,0.013,2.16,0.013,2.893 c4.813,0.373,5.547,7.2,2.413,9.76c-7.333,0.44-14.693,0.027-22.013,0.147c-1.04-0.933-2.04-1.853-3.027-2.76 c-0.08-1.747-0.133-3.507-0.173-5.24c2.227-1.893,4.893-3.027,7.813-3.387c0.04-0.627,0.107-1.88,0.133-2.493 C1753.745,261.897,1751.012,261.017,1750.652,257.844z M1727.385,129.204c4.093,1.093,8.36,2.093,11.987,4.387 c0.818,4.501-8.841,15.376-11.88,18.8C1727.252,144.671,1727.359,136.937,1727.385,129.204z M1729.532,158.257 c4.28-5.16,7.44-11.213,12.387-15.8c1.064,39.384,0.088,38.424-1.547,39.96c-4.293,5-7.893,10.587-12.6,15.213 C1728.23,183.075,1725.348,162.491,1729.532,158.257z M1741.999,211.284c-2.507-1.413-5.04-2.747-7.813-3.493 c-0.827-1.613-1.68-3.213-2.333-4.893c2.613-5.16,6.2-9.813,10-14.173C1742.185,196.244,1741.972,203.764,1741.999,211.284z M1727.559,229.711c5,3.493,12.373,4.973,14.28,11.587c1.6,5.387,0.12,11.2,1.573,16.667c-1.693,0.027-3.36,0.053-5.013,0.093 c-1.587,1.653-2.8,3.587-3.107,5.907c2.667,1.133,5.36,2.2,8.067,3.293c-0.013,2.547-0.013,5.093,0,7.653 c-5.387,0.6-10.813,0.507-16.187-0.093c0.92-2.547,1.573-5.173,1.76-7.88c1-0.067,2.987-0.173,3.987-0.24 c0.133-3.8-1.76-7.133-5.44-8.373C1725.239,238.374,1728.117,252.702,1727.559,229.711z M1719.985,199.471 c-2.744-0.966-6.829-2.217-15.12-5.533c1.03-5.459,14.661-22.256,15.613-23.307C1720.545,180.231,1721.412,189.951,1719.985,199.471 z M1720.625,215.791c-1.827,0.56-2.52-0.107-2.08-1.987C1720.332,213.244,1721.025,213.911,1720.625,215.791z M1720.359,162.417 c-6.747,10.173-14.28,19.933-22.4,29.04c-1.68-2.12-4.24-4.173-3.84-7.16c0.108-34.334-1.446-25.322,5.32-34.68 c6.947-7.987,13.013-16.707,20.067-24.613C1721.32,129.681,1720.787,158.907,1720.359,162.417z M1712.745,123.524 c-0.038,2.802-16.756,21.925-18.707,23.88c0.067-8.667,0.08-17.333-0.013-25.987 C1693.279,115.449,1698.056,117.137,1712.745,123.524z M1694.572,232.191c-0.093-6.4-0.667-12.773-0.547-19.173 c4.69,0.517,26.384,13.075,27.493,13.733c-0.573,11.587,1.387,23.16-0.4,34.68c-1.987,0.147-3.947,0.32-5.893,0.493 c0.427,1.467,0.92,2.947,1.48,4.4c4.267,0.56,4.587,5.173,5.413,8.533c-8.88,0.453-17.813-0.28-26.707,0.067 c-0.893-2.52-1.427-5.133-1.693-7.773c2.547-1.533,5.267-2.8,8.187-3.533c-0.027-0.76-0.093-2.28-0.12-3.053 c-2.067-0.093-4.12-0.2-6.133-0.293C1691.279,251.297,1695.239,241.577,1694.572,232.191z M1683.345,161.591 c-3.253,3.627-5.707,8.013-9.733,10.893c-0.419-1.505-0.625-28.469-0.64-29.48c-0.776-5.016,13.269-20.205,14.28-21.227 C1688.392,161.217,1688.264,155.328,1683.345,161.591z M1686.919,185.364c-4.133-1.08-10.787-2.867-8.947-8.627 c2.947-3.947,5.707-8.067,9.227-11.547C1688.279,171.871,1687.905,178.697,1686.919,185.364z M1673.065,110.844 c3.693,0.347,7.427,0.853,10.933,2.173c3.721,4.297-8.87,15.666-10.973,16.88C1672.572,123.551,1672.812,117.191,1673.065,110.844z M1672.279,219.111c0.627-5.76,0.707-11.547,0.88-17.333c23.089,9.954,12.76,11.298,15.8,39.893c0.32,4.76,0.88,9.64-0.08,14.347 c-2.013,1.467-4.32,2.453-6.493,3.587c-0.067,0.76-0.173,2.267-0.227,3.027c2.187,1.413,4.427,2.773,6.693,4.107 c-0.52,2.627,0.907,6.267-1.773,7.987c-4.413,0.413-8.84,0.107-13.253,0.133c0.107-3.84-1.093-9.507,4.333-9.893 c0.12-3.267-0.28-8.093-4.88-7.267C1673.545,244.831,1671.385,231.977,1672.279,219.111z M1666.012,176.204 c-5.933-1.547-11.64-3.8-17.147-6.467c4.4-6.32,9.347-12.24,14.133-18.267c1.12-0.707,2.92-4.667,3.893-1.64 C1667.033,151.302,1668.171,169.768,1666.012,176.204z M1640.759,99.844c6.48,1.613,12.893,3.587,19.12,6.067 c-4.613,6.84-10.48,12.693-15.547,19.16c-1.307,1.307-2.44,3.48-4.573,3.133c-0.907-7.08,0.093-14.213-0.347-21.307 C1639.145,104.444,1639.705,102.057,1640.759,99.844z M1665.892,107.591c1.867,9.907,0.867,19.947,0.547,29.933 c-0.107,3.92-3.613,6.413-5.693,9.387c-5.493,6.56-9.987,14.053-16.467,19.72c-0.88,0.133-2.64,0.413-3.52,0.547 c-0.68-9.72-1.173-19.453-1.427-29.187C1648.199,127.884,1656.052,116.817,1665.892,107.591z M1639.625,186.764 c5.757,0.359,26.051,11.496,27.387,12.427c1.92,20.427,1.627,40.987,0.973,61.48c-2.56-0.027-5.093-0.04-7.613-0.053 c0.107,3.68,3.333,4.64,6.28,5.56c1.787,2.48,0.507,5.867,0.773,8.72c-8.88-1.053-17.853-0.827-26.76-1.267 c-0.08-2.707-0.133-5.4-0.107-8.107c2.88-0.227,4.107-2.493,4.373-5.133c-1.56-0.467-3.094-0.92-4.627-1.36 C1639.839,246.097,1639.665,197.937,1639.625,186.764z M1619.359,93.364c3.667,1.04,7.373,1.987,11.053,3.053 c-1.067,6.427-6.88,10.453-11.027,14.987C1619.305,105.391,1619.359,99.377,1619.359,93.364z M1619.412,119.271 c4.227-5.093,8.787-9.933,13.093-14.973c0.84,11.32,1.747,22.707,0.173,34.027c-4.427,4.827-8.213,10.24-13.227,14.507 C1619.252,141.644,1619.359,130.457,1619.412,119.271z M1633.025,163.417c-3.44-1.613-6.773-3.427-10.2-5.04 c2.72-4.547,5.867-8.84,9.813-12.427C1633.825,151.711,1634.345,157.644,1633.025,163.417z M1618.705,196.351 c1.013-6.36,0.387-12.8,0.4-19.2c20.681,6.757,13.979-0.372,15.747,79.413c-2.387,0.32-4.133,1.987-5.933,3.387 c0.067,0.613,0.213,1.84,0.293,2.453c1.88,1.013,3.787,2.067,5.68,3.133c-0.52,2.653-0.787,5.36-0.947,8.053 c-5,0-10,0.027-14.987-0.067c1.36-3.92,2.467-8.68,6.8-10.32c-0.053-1.733-0.107-3.44-0.147-5.16c-2.24,0-4.48,0.013-6.667,0.027 C1619.439,237.471,1617.492,216.911,1618.705,196.351z M1586.172,85.337c7.08,0.093,13.693,2.933,20.493,4.613 c-5.84,8.413-13.253,15.627-20.56,22.773C1585.732,103.577,1583.319,94.351,1586.172,85.337z M1592.452,113.391 c7.053-6.827,12.693-14.947,19.933-21.6c2.24,6.347-0.36,12.693,0.547,19.147c0.237,12.608,3.459,4.011-17.987,30.147 c-2.44,2.613-4.773,6.067-8.747,6.067c-0.52-7.24,0.653-14.613-1.413-21.68C1584.879,120.444,1589.492,117.017,1592.452,113.391z M1612.625,155.111c-6.173-1.427-12.827-2.587-18.053-6.28c5.92-7.12,11.613-14.493,18.067-21.147 C1613.359,136.777,1613.759,146.031,1612.625,155.111z M1586.119,163.964c9.6,2.413,18.413,7.147,27.8,10.293 c2.133,26.715,0.615,72.499,0.773,86.72c-2.12-0.147-4.227-0.28-6.307-0.4c0.373,2.52,1.733,4.573,4.44,4.92 c0.707,2.64,1.173,5.333,1.44,8.053c-9.427,0.04-18.84,0.013-28.253,0c-0.013-3.013-0.013-6.013,0-9.013 c2.173-0.56,4.373-1.12,6.56-1.733c-0.04-0.827-0.133-2.48-0.173-3.307c-1.627-0.053-3.227-0.107-4.8-0.173 c-0.693-1.373-1.4-2.72-2.147-4.04C1585.286,251.418,1583.771,179.355,1586.119,163.964z M1566.039,80.044 c3.867-0.053,7.653,0.84,11.067,2.707c-2.787,4.827-6.773,8.787-11.013,12.347C1565.985,90.084,1565.999,85.057,1566.039,80.044z M1579.145,88.964c0.467,10.893,0.08,21.8,0.227,32.707c-4.547,4.4-8.4,9.48-13.28,13.533c-0.107-9.88-0.093-19.773-0.067-29.667 C1565.519,101.748,1576.961,90.675,1579.145,88.964z M1578.879,144.151c-3.147-0.773-6.013-2.347-9.04-3.373 c1.907-4.84,5.453-8.84,9.347-12.2C1579.412,133.751,1579.639,138.991,1578.879,144.151z M1565.745,156.671 c4.16,0.587,8.147,1.987,11.973,3.733c4.16,6.293,3.08,13.987,2.973,21.107c-0.384,8.586,3.068,54.734-0.56,75.293 c-1.907-0.12-3.787-0.227-5.64-0.333c-0.133,1.96-0.2,3.92-0.293,5.867c2.147,0.827,4.28,1.64,6.467,2.44 c0,2.413,0.107,4.84-0.12,7.253c-1.467,2.267-4.4,1.347-6.613,1.613c-2.64-0.32-6.16,0.893-7.747-1.88 c-0.267-2.053-0.227-4.12-0.267-6.173c3.32-0.16,8.32-0.933,7.72-5.413c0.52-4.067-5.12-3.227-7.667-3.52 c-0.72-9.653,0.2-19.373-0.973-28.987c-0.627-5.587,0.547-11.173,0.347-16.76c0.08-10.24-0.707-20.453-0.613-30.68 C1565.572,172.404,1565.945,164.537,1565.745,156.671z M1531.465,77.524c-0.04-1.933,0.92-3.667,1.48-5.48 c7.24,1.213,14.347,3.107,21.507,4.787c-2.4,3.393-18.404,20.592-22.6,23.707C1531.439,92.871,1531.385,85.191,1531.465,77.524z M1531.639,109.884c4.745-8.02,26.567-29.936,27.573-30.787c0.672,29.585,4.617,18.153-17.813,44.347 c-2.813,3.187-5.28,7.573-10,7.84C1531.532,124.151,1530.919,116.977,1531.639,109.884z M1559.399,137.244 c-6.693-0.373-13.133-2.187-19.493-4.147c2.67-5.146,18.054-21.206,19.48-22.507 C1560.385,119.417,1560.452,128.417,1559.399,137.244z M1532.812,145.284c1.764,0.426,25.504,7.08,27.853,9.787 c1.869,29.004,1.184,93.717,0.32,104.093c-1.853,0.56-3.827,0.413-5.693,0.573c0.187,1.987,0.4,3.987,0.613,5.987 c1.573-0.333,3.173-0.667,4.787-1.013c-0.013,2.947-0.013,5.88,0.013,8.827c-9.467,0.293-18.893-0.2-28.307-1.053 c0.267-3.227,0.787-6.44,1.28-9.64c0.907-0.307,2.72-0.92,3.627-1.227c-0.747-1.387-1.853-2.333-3.347-2.8 C1529.968,250.599,1529.829,151.959,1532.812,145.284z M1512.692,67.964c3.28,0.373,6.533,1.04,9.747,1.88 c-0.773,5.52-6.307,8.333-9.733,12.173C1512.639,77.337,1512.639,72.657,1512.692,67.964z M1518.999,82.511 c2.107-1.693,3.56-4.853,6.52-5.053c0.389,2.909,1.545,28.587-0.587,30.92c-3.827,4.307-7.547,8.773-12.16,12.28 C1512.165,81.344,1511.993,90.941,1518.999,82.511z M1524.919,129.311c-2.813-0.893-5.627-1.76-8.36-2.8 c2.24-4.12,4.68-8.533,9.12-10.64C1526.012,120.337,1526.719,125.044,1524.919,129.311z M1512.505,138.564 c4.333,1.813,10.44,1.68,13,6.227c3.413,9.267-0.067,19.24,1.747,28.773c2.013,11.067-0.187,22.2-0.067,33.307 c-0.28,9.987,2.387,19.987,0.493,29.92c-1.2,6.667-0.667,13.48-0.72,20.213c-2.813-3.68-6.667-0.307-6.88,3.32 c2.147,1.36,4.427,2.547,6.8,3.507c-0.267,2.8-0.453,5.613-0.707,8.413c-3.973,0.027-7.947,0.267-11.88-0.2 c-2.64-1.653-1.307-5.12-1.68-7.667c2.494-0.28,5.013-0.587,7.52-0.973c-0.04-1.96-0.147-3.933-0.307-5.88 c-2.053-1.413-4.813-0.587-7.12-0.88C1512.691,255.643,1509.965,171.999,1512.505,138.564z M1478.065,64.724 c0.88-1.013,1.773-2.013,2.68-3.027c6.96,2.147,14.28,2.827,21.413,4.32c-7.533,8.8-15.453,17.307-24.013,25.107 C1477.919,82.324,1478.025,73.524,1478.065,64.724z M1482.972,93.217c8.12-7.627,14.747-16.68,23.08-24.067 c2.142,21.926-0.709,21.311-4.36,25.4c-7.56,7.6-14.36,15.92-22.32,23.107c-2.16-5.04-0.92-10.84-1.36-16.2 C1477.532,97.831,1480.785,95.551,1482.972,93.217z M1506.372,123.484c-7.427,0.373-14.493-1.947-21.573-3.773 c6.787-7.853,13.587-15.72,21.267-22.72C1506.879,105.791,1506.905,114.671,1506.372,123.484z M1478.119,132.337 c0.347-0.747,1.04-2.253,1.4-3c9.173,3.013,18.88,4.68,27.747,8.44c1.113,6.668,2.339,94.473,0.347,122.013 c-2.707-0.147-5.387-0.28-8.053-0.44c0,0.8-0.013,2.4-0.013,3.213c0.827-0.08,2.467-0.24,3.293-0.307 c-0.24,2.333-0.427,4.68-0.64,7.027c0.893,0.013,2.693,0.027,3.587,0.04c-0.093-2.16-0.133-4.307-0.12-6.453 c2.84,2.24,1.347,6.253,1.747,9.347c-9.387,0.013-18.76,0-28.134,0c-0.093-2.6-0.28-5.213-0.013-7.8 c2.267-1.853,5.587-2.973,5.587-6.44c-1.107,0.107-3.307,0.32-4.413,0.427c-4.067-4.44-1.947-10.813-2.88-16.213 C1477.142,239.63,1475.945,170.908,1478.119,132.337z M1469.145,61.751c-2.96,3.493-5.92,7.053-9.653,9.773 c-0.16-3.84-0.16-7.667-0.147-11.507C1462.665,60.071,1466.185,59.951,1469.145,61.751z M1459.385,79.111 c3.747-4.293,7.56-8.533,11.533-12.64c1.12,1.253,1.933,2.707,1.547,4.48c-0.9,21.659,1.773,25.052-2.373,29.32 c-3.28,3.427-6.467,7.027-10.44,9.667C1459.052,99.684,1459.465,89.391,1459.385,79.111z M1470.145,117.524 c-2.173-0.813-4.227-1.84-6.32-2.76c2.32-3.427,4.693-6.827,7.653-9.76C1473.065,108.924,1473.359,114.431,1470.145,117.524z M1459.372,125.431c3.693,0.213,8.053-0.293,11,2.493c6.107,5.93,1.761,61.423,4.12,108.387c-0.533,6.267-1.08,12.533-1.267,18.84 c-2.347-0.093-4.84-0.493-6.547,1.427c-2.12-0.173-4.24-0.333-6.307-0.48C1458.099,232.054,1458.808,153.106,1459.372,125.431z M1472.719,263.017c-0.013,3.107-0.013,6.227-0.013,9.347c-4-0.56-8.013-1.04-12.027-1.4c-0.013-2.093,0-4.187,0.013-6.28 c2.28-0.88,4.64-1.813,6.147-3.867C1468.785,261.524,1470.745,262.271,1472.719,263.017z M1445.385,56.604 c1.053,0.373,3.173,1.133,4.227,1.507c-1.653,2.409-19.457,22.401-24.8,25.52c-0.307-9.12,0.013-18.253-0.187-27.387 C1431.199,53.031,1438.452,57.097,1445.385,56.604z M1425.145,91.404c9.267-9.973,17.907-20.76,28.507-29.387 c0.173,5.413,0.92,10.933-0.067,16.293c-4.04,4.92-9.013,8.973-13.2,13.747c-5.093,5.133-9.173,11.413-15.44,15.24 C1424.959,102.031,1424.079,96.564,1425.145,91.404z M1453.185,112.884c-7.613-0.147-15.2-0.72-22.613-2.507 c6.507-9.333,15.187-17,23.253-24.96C1453.839,94.551,1454.839,103.844,1453.185,112.884z M1424.639,120.311 c0.733-0.4,2.173-1.2,2.907-1.6c8.853,0.667,17.32,3.92,26.2,4.453c2.636,8.117,1.113,92.713,2.627,114.373 c-0.467,7.013-2.094,13.947-1.573,21.027c-1.613,0.147-3.213,0.307-4.8,0.467c0.013,0.813,0.04,2.44,0.053,3.253 c4.747,0.627,4.533,5.387,4.333,9.093c-10.634-1.169-9.026,1.006-28.373-0.573c0-2.453,0-4.92,0.04-7.373 c1.733-1.133,4.627-1.8,4.04-4.507c-1.373-1.747-3-3.24-4.547-4.787C1423.151,238.759,1424.036,133.402,1424.639,120.311z M1407.345,53.257c2.8,0.147,5.56,0.787,8.053,2.147c-2.467,2.507-4.813,5.133-7.453,7.44 C1404.292,61.671,1406.959,56.124,1407.345,53.257z M1418.639,58.564c1.173,10.28,0.693,20.68,0.56,31 c-2.76,4.973-7.547,8.64-11.6,12.56C1403.866,66.873,1404.71,73.898,1418.639,58.564z M1419.439,107.324 c-2.76,0.307-5.533,0.213-8.28-0.04c2.36-2.773,3.827-7.893,7.88-8.24C1419.372,101.791,1419.345,104.564,1419.439,107.324z M1407.119,114.604c3.187,0.52,6.36,1.227,9.56,1.76c5.64,7.12,2.613,16.907,3.173,25.24c1.129,9.502,1.87,102.137-0.253,113.12 c-2.227,0.173-4.573,0.013-6.453,1.373c-1.906,0.08-3.8,0.12-5.667,0.16C1406.015,245.594,1405.106,122.933,1407.119,114.604z M1419.319,271.084c-3.68-0.107-7.347-0.187-11.013-0.227c1.12-1.707,2.053-3.693,4.053-4.56c-0.12-3.24,2.333-5.213,5.44-5.173 C1420.105,264.017,1419.799,267.657,1419.319,271.084z M1371.559,51.084c8.507-0.227,17.253-1.053,25.48,1.733 c-2.054,3.282-20.744,23.855-25.587,27.173C1371.332,70.364,1371.185,60.711,1371.559,51.084z M1374.359,84.551 c9.253-8.693,17.027-18.813,26.307-27.493c0.12,4.453,0.6,9-0.213,13.427c-2.376,2.972-24.865,28.116-28.68,28.253 C1371.092,93.964,1370.265,88.111,1374.359,84.551z M1400.612,105.324c-4.853,1.36-9.827,0.427-14.733,0.12 c-0.64-0.507-1.92-1.493-2.56-1.987c-1.973,1.693-4.413,0.96-6.667,0.587c1.874-3.94,22.906-25.794,23.907-26.707 C1401.305,86.644,1400.745,96.004,1400.612,105.324z M1371.332,112.511c1.4-0.947,2.827-1.867,4.267-2.773 c8.493,3.227,18,1.307,26.293,5.187c0.666,6.581,2.99,120.974,0.027,143.92c-2.227,0.053-4.427,0.107-6.6,0.16 c0.067,0.8,0.2,2.413,0.28,3.227c5.053-0.053,5.467,4.973,6.347,8.773c-9.747,0.52-19.507-0.333-29.253-0.133 c-0.013-2.52-0.013-5.027,0-7.533c1.72-0.76,3.44-1.573,5.16-2.387c-0.04-0.693-0.107-2.08-0.133-2.76 c-1.64-0.64-3.76-0.693-4.707-2.373C1369.648,242.328,1371.586,119.874,1371.332,112.511z M1354.159,51.017 c2.347-0.067,4.707-0.107,7.093-0.107c-2,2.773-4.307,5.36-7.187,7.24C1354.039,55.777,1354.079,53.391,1354.159,51.017z M1354.052,66.097c4.387-3.507,6.96-8.88,11.827-11.813c0.307,10.787,0.107,21.573,0.107,32.373c-3.84,3.76-7.08,8.16-11.493,11.293 C1353.839,87.337,1354.025,76.711,1354.052,66.097z M1365.972,94.537c-0.053,2.507-0.147,5-0.253,7.493 c-2.027,0.16-4.053,0.333-6.04,0.507C1361.292,99.524,1363.239,96.657,1365.972,94.537z M1354.545,110.177 c3.053-1.147,6.613-0.893,9.76-0.2c3.093,2.92,2.16,7.733,2.68,11.56c0.006,1,2.564,121.94,0.32,132.4 c-4.48-1.173-7.44,2.787-11.72,2.507C1353.752,247.067,1352.584,122.844,1354.545,110.177z M1366.212,270.884 c-3.627,0.013-7.253,0.027-10.853,0.027c-0.013-2.12-0.013-4.213,0-6.32c3.533-0.173,7.973-5.267,10.68-1.173 C1366.825,265.804,1366.172,268.404,1366.212,270.884z M1350.919,244.217c-1.56,4.707-1.4,9.547-1.227,14.453 c-2.067,0.147-4.107,0.293-6.133,0.44v3.147c4.813,0.093,6.147,4.64,6.733,8.587c-8.987,0.613-17.987,0.013-26.973,0.12 c-0.8-2.413-1.293-4.907-1.427-7.44c2.32-0.653,2.733-2.813,3.133-4.867c-1.373-0.373-2.747-0.733-4.093-1.093 c-3.97-13.072-2.945-133.236-2.693-147.973c2.848-2.299-0.757-4.161,29.053-1.293 C1352.522,117.014,1349.049,163.964,1350.919,244.217z M1348.159,99.751c-4.173,2.627-9.507,1.893-14.173,1.507 c-3.52-1.347-7.187-1.987-10.92-1.107c5.747-8.36,13.76-14.747,20.04-22.653c1.467-1.92,3.307-3.493,5.48-4.56 C1348.439,81.844,1349.372,90.937,1348.159,99.751z M1348.665,64.991c-9.933,9.907-18.72,20.92-29.267,30.213 c-0.053-3.027-0.053-6.053-0.027-9.08c6.358-5.838,22.846-27.271,29.213-30.64C1348.679,58.657,1348.692,61.817,1348.665,64.991z M1318.332,51.164c3.547-2.827,9.107-2.92,13.627-2.8c3.893,2.56,8.773,0.827,13.147,1.387c-1.067,3.053-3.587,5.44-7.027,4.627 c-0.013,1-0.053,3.013-0.08,4.013c-5.747,6.293-12.587,11.44-18.253,17.827C1318.06,72.069,1317.412,73.432,1318.332,51.164z M1302.119,62.191c3.76-3.187,6.747-7.16,10.493-10.373c0.293,11.16,0.853,22.373,0.013,33.52c-3.92,2.493-6.88,6.107-10.467,9 C1301.919,83.617,1301.972,72.897,1302.119,62.191z M1311.559,97.737c-1.6-0.92-1.52-1.867,0.227-2.853 C1313.385,95.804,1313.319,96.751,1311.559,97.737z M1301.999,109.764c3.187-2.147,6.827-3.307,10.72-3.027 c3.647,10.375,3.029,136.51,1.133,147.387c-1.587-0.12-3.147-0.24-4.707-0.36c-0.56,0.613-1.68,1.827-2.24,2.44 c-0.827,0.013-2.493,0.027-3.333,0.027C1303.222,254.351,1300.591,187.509,1301.999,109.764z M1307.145,271.377 c2.267-1.413,4.733-2.507,7.24-3.48C1314.825,272.297,1309.972,271.137,1307.145,271.377z M1295.572,93.337 c0.36,0.84,1.067,2.507,1.427,3.333c-5.267-3.28-9.027-8.293-13.92-11.96c4.12-5.027,8.053-10.493,13.347-14.36 C1296.892,78.004,1296.905,85.764,1295.572,93.337z M1280.119,87.937c3.053,3.467,6.653,6.52,8.947,10.6 c-5.84,1.787-11.107-0.84-16.547-2.493C1275.012,93.311,1277.532,90.591,1280.119,87.937z M1271.892,86.244 c-0.787,2.733-2.12,5.533-5.467,4.853c-0.173-5.907-0.627-11.8-0.293-17.707C1275.001,81.461,1276.4,83.018,1271.892,86.244z M1266.025,51.004c9.32-0.613,18.573-2.027,27.96-1.493c3.922,9.384,2.939,6.058-1.747,16.96c-3.053,3.107-6.067,6.32-9.827,8.573 c-1,1.267-1.933,2.56-2.96,3.787c-4.76-3.627-9.093-7.96-12.973-12.507C1265.425,61.324,1266.252,56.084,1266.025,51.004z M1265.999,109.097c8.813-1.44,17.827-0.84,26.693-2.2c1.16,1.04,2.373,2.04,3.467,3.187c3.883,14.77,0.411,114.637,2.813,134.147 c-0.72,4-2.4,7.827-1.88,12.013c-1.08-0.013-3.227-0.027-4.293-0.027c-0.08-0.667-0.213-2.013-0.293-2.68 c-1.707,0.013-3.4,0.027-5.067,0.04c0.293,5.253-0.773,10.4-1.653,15.547c-0.96,1.027-1.893,2.053-2.827,3.08 c-4.68-0.053-9.373,0.267-14.027-0.133c-2.693-1.533-1.213-5.12-1.667-7.627c1.787-0.68,3.587-1.387,5.4-2.067 c-0.013-0.747-0.027-2.24-0.04-2.987c-1.547-0.32-3.04-0.76-4.48-1.32c-1.027-4.107-2.92-8.613-1.107-12.76 C1266.487,243.224,1263.873,163.494,1265.999,109.097z M1260.679,52.417c-0.253,1.96-0.787,3.867-1.267,5.773 c-2.413-2-4.747-4.227-5.933-7.2C1255.865,51.244,1259.079,49.937,1260.679,52.417z M1250.092,56.991 c3.787,3.013,7.52,6.267,10.32,10.267c0.587,8.587,0.533,17.32-0.587,25.88C1249.635,81.187,1249.518,91.831,1250.092,56.991z M1255.105,98.004c-0.093,2.533-3.187,0.72-4.72,0.92c-0.067-1.947-0.107-3.88-0.107-5.827 C1252.159,94.417,1254.065,95.871,1255.105,98.004z M1250.039,130.791c-0.027-7.013-1.627-14.6,1.747-21.107 c2.92-0.2,5.84-0.44,8.773-0.587c2.348,10.351,1.487,144.653,1.48,145.653c-2.6,0.467-5.307,0.867-7.413,2.573 c-0.827,0.08-2.467,0.24-3.293,0.32c0.027-7.2-2.467-14.2-1.387-21.413c0-16.178-1.3-86.414-1.293-86.707 C1248.079,143.191,1250.545,137.111,1250.039,130.791z M1260.839,272.204c-3.147,0-6.28,0.013-9.4,0.08 c0.733-2.16,1.173-4.4,1.493-6.653c1.92-0.72,3.84-1.48,5.893-1.853C1261.479,265.804,1260.599,269.337,1260.839,272.204z M1243.479,52.231c1.36,7.933,1.533,16.173,0.267,24.12c-4.533-3.796-16.523-15.819-19.893-22.56 C1230.425,53.591,1236.839,51.537,1243.479,52.231z M1214.065,54.391c4.863,3.566,25.305,25.253,28.493,29.173 c2.787,3.147,1.333,7.587,1.493,11.373c-0.373,1.28,0.453,3.347-1.187,3.947c-9.867-9.24-19.027-19.213-28.813-28.507 C1213.999,65.044,1213.972,59.711,1214.065,54.391z M1235.999,99.844c-5.72,1.333-11.587,1.253-17.4,1.587 c-1.027-1.653-2.8-2.32-4.533-2.907c-0.067-7.053-0.107-14.107,0.053-21.16C1221.799,84.431,1229.319,91.791,1235.999,99.844z M1213.985,113.631c8.08-2.133,16.64-0.747,24.64-3.32c2.84-1.853,4.72,1.213,6.6,2.853c-0.347,2.347,0,4.693,0.693,6.947 c-1.76,11.147,0.587,22.28,0.107,33.453c0.161,112.821-1.4,106.653-1.4,106.653c-1.8,0-3.587,0.013-5.347,0.013 c0.12,2.28,0.267,4.56,0.453,6.84c1.853-0.28,3.56-1.04,5.107-2.147c-0.12,2.427-0.16,4.853-0.187,7.293 c-9.76,0.013-19.52,0.147-29.28,0.107c-0.067-2.693-0.12-5.387-0.133-8.067c1.733-0.2,3.493-0.373,5.267-0.56 c0.027-1.48,0.08-2.96,0.16-4.44c-0.947,0.04-2.813,0.093-3.76,0.133c-6.817-11.39-1.012-23.514-4.2-88.467 C1212.711,169.923,1212.621,122.397,1213.985,113.631z M1207.732,55.777c2.293,2.027-0.067,5.013-0.733,7.24 c-1.64-1.507-3.347-2.973-4.747-4.707C1200.559,55.337,1206.292,53.551,1207.732,55.777z M1198.039,61.071 c3.787,2.947,7.44,6.107,10.427,9.893c-1.027,8.573,0.387,17.213-1.067,25.773c-3.293-2.733-6.72-5.453-9.107-9.04 C1197.625,78.857,1198.212,69.951,1198.039,61.071z M1198.132,95.644c2.227,2.133,4.24,4.507,5.693,7.24 c-2.013-0.267-3.987-0.613-5.933-1.08C1197.959,99.751,1198.039,97.697,1198.132,95.644z M1198.052,120.177 c-0.08-2.173,1.773-3.64,2.867-5.307c2.587-0.04,5.2-0.107,7.827-0.133c0.01,1.005,1.943,129.663,0.667,141.04 c-2.147,0.693-4.427,0.747-6.613,1.053c-0.733,1.68-2,2.413-3.813,2.16C1197.799,255.638,1196.636,145.964,1198.052,120.177z M1208.719,272.351c-3.267-0.027-6.533-0.08-9.773-0.187c2.093-3.893,5.893-6.4,9.653-8.533 C1208.665,266.537,1208.692,269.444,1208.719,272.351z M1189.532,56.404c0.947,0.92,1.88,1.88,2.8,2.853 c0.28,7.267,0.453,14.52,0.28,21.787c-4.52-1.6-7.067-5.947-10.453-9.04c-3.813-4.28-8.6-7.8-11.387-12.893 C1177.132,59.084,1183.305,57.484,1189.532,56.404z M1160.972,64.937c0.467-1.773,0.933-3.533,1.48-5.293 c5.102,3.086,26.581,25.518,29.427,29.4c1.44,5.12,0.467,10.587-0.44,15.733c-5.468-3.575-28.328-26.089-30.44-30.173 C1160.652,71.404,1161.812,68.151,1160.972,64.937z M1162.185,83.444c2.755,2.072,17.636,16.83,21.133,21.36 c-4.013,0.373-8.053,0.64-11.88,1.867c-1.867-0.147-3.733-0.267-5.573-0.36c-1.28-0.88-2.547-1.747-3.8-2.6 C1162.785,96.951,1160.492,90.057,1162.185,83.444z M1160.972,123.337c5.067-4.813,13.107-2.173,19.08-5.427 c11.601-0.863,12.322-2.818,13.56,3.467c1.293,5.36-0.64,10.747-0.48,16.147c1.16,15.067,1.533,30.227,0.88,45.347 c0.323,82.738,1.333,64.391-1.24,78.627c-2.333,0.08-4.667,0.173-6.973,0.267c0.653,2.147,1.36,4.28,2.067,6.413 c1.6-0.107,3.2-0.213,4.827-0.32c-0.013,1.893-0.013,3.787,0,5.693c-9.68-0.147-19.387,0.267-29.053-0.16 c-2.307-1.347-1.44-4.213-1.787-6.387c2.253-1.987,4.907-3.4,7.973-3.533c0.027-0.653,0.107-1.973,0.147-2.627 c-3.067-0.187-7.067-0.56-8.4-3.76C1160.427,249.143,1160.79,124.562,1160.972,123.337z M1150.239,61.791 c1.747-0.12,3.493-0.227,5.253-0.333c-0.027,2.693-0.107,5.387-0.24,8.08c-1.787-1.453-3.56-2.947-5.293-4.44 C1150.025,64.271,1150.172,62.617,1150.239,61.791z M1155.239,103.071c-2.827-2.227-5.347-4.773-7.88-7.307 c-1.947-9.227-0.933-18.8-1.253-28.173C1157.857,74.825,1155.816,75.533,1155.239,103.071z M1151.092,108.977 c-3.493,2.467-4.48-2.92-4.227-5.44C1149.385,102.697,1150.772,106.884,1151.092,108.977z M1145.199,164.377 c3.478-24.433-5.045-43.931,11.893-41.587c0.011,6.589,0.901,126.081,0.227,135.573c-2.093-0.147-4.187-0.28-6.253-0.387 c-1.013,0.667-2.053,1.28-3.12,1.84c-2.871-5.554-0.993-9.761-1.733-75.48C1145.999,177.671,1144.132,171.057,1145.199,164.377z M1156.705,273.564h-9.333c-0.027-1.76-0.04-3.507-0.04-5.253c6.97-2.277,4.124-1.017,9.32-3.147 C1156.679,267.964,1156.679,270.764,1156.705,273.564z M1140.572,64.324c0.187,8.04,0.293,16.093-0.227,24.12 c-7.12-6.867-15.187-13.067-20.867-21.2C1126.505,66.204,1133.372,63.564,1140.572,64.324z M1109.905,68.631 c0.893-0.08,2.693-0.227,3.587-0.307c35.825,33.808,25.956,26.557,26.907,42.013c-0.88,0.293-2.627,0.893-3.507,1.187 c-5.349-4.256-25.852-25.206-26.64-26.213C1109.039,79.884,1109.559,74.151,1109.905,68.631z M1110.265,114.737 c-0.413-7.413-0.24-14.84-0.213-22.253c7.133,5.92,13.987,12.48,19.573,19.92C1123.265,113.817,1116.825,115.551,1110.265,114.737z M1120.865,125.124c-2.787,0.4-5.56,0.827-8.333,1.133c-0.667,0.44-1.987,1.32-2.653,1.76c0.133-0.707,0.413-2.107,0.56-2.813 c3.413-0.253,6.853-0.573,10.24-1.227L1120.865,125.124z M1109.625,133.831c30.925-8.213,28.636-7.649,32.28-5.493 c-0.118,126.482,1.858,124.908-1.013,133.653c-1.733,0.08-3.453,0.173-5.173,0.267c-0.107,0.8-0.32,2.413-0.44,3.227 c1.827,0.627,3.64,1.227,5.507,1.787c0.64,2.067,1.147,4.16,1.6,6.28c-10.28,2.04-20.773,1.16-31.173,1.333 c-0.52-2.573-0.987-5.147-1.387-7.747c2.853-0.387,5.36-1.587,6.093-4.627c-1.787-0.147-3.56-0.267-5.32-0.373 C1107.457,243.821,1109.616,134.832,1109.625,133.831z M1103.359,70.844c-0.013,2.387-0.013,4.787-0.027,7.173 c-2.533-1.773-5.6-3.507-5.707-7C1099.532,70.951,1101.439,70.897,1103.359,70.844z M1103.305,84.711 c0.04,9.227,0.213,18.467-0.12,27.693c-2.76-2.2-5.307-4.667-7.813-7.147c-0.013-9.387-0.027-18.787-0.013-28.187 C1098.052,79.564,1100.652,82.164,1103.305,84.711z M1099.079,115.564c-0.027,0.693-0.08,2.093-0.12,2.8 c-0.76,0-2.293,0.013-3.067,0.027c-0.24-1.653-0.48-3.293-0.693-4.933C1096.479,114.164,1097.772,114.857,1099.079,115.564z M1104.692,135.577c-0.013,1,1.146,111.19,0.333,122.907c-0.747,0.067-2.24,0.227-2.987,0.307c-2.947-0.267-3.933,4.547-7.013,3.24 c-0.907-29.92,0.147-59.867-1.013-89.773C1098.034,148.219,1088.806,135.751,1104.692,135.577z M1101.665,268.044 c0.76-0.4,2.28-1.187,3.027-1.587c-0.013,2.933-0.013,5.88-0.04,8.813C1100.319,275.537,1102.185,270.711,1101.665,268.044z M1091.212,63.164c0.16,0.613,0.493,1.84,0.653,2.44c-5.4,1.707-11.267,1.147-16.84,0.827 C1080.372,65.177,1085.705,63.631,1091.212,63.164z M1088.519,73.444c0.333,8.187,0.12,16.373,0.173,24.56 c-7.04-6.4-13.747-13.187-20.24-20.147C1075.039,75.964,1081.692,74.204,1088.519,73.444z M1058.252,80.337 c1.493-0.547,3.013-1.093,4.547-1.627c8.4,8.773,16.987,17.373,25.507,26.027c0.907,5.187,0.173,10.533,0.427,15.787 c-1.6,0.84-3.173,1.693-4.733,2.533c-7.76-8.147-15.813-15.987-23.667-24.027c-4.533-3.773-0.76-10.36-3.453-15.107 C1057.319,82.724,1057.772,81.524,1058.252,80.337z M1059.732,136.071c3.88,0.787,7.76,1.587,11.64,2.467 c-1.893-0.16-3.773-0.347-5.64-0.547c-2.467,1.467-5.013,2.813-7.867,3.253c0.587-0.613,1.76-1.827,2.347-2.44 C1060.092,138.124,1059.852,136.751,1059.732,136.071z M1058.399,128.124c-0.653-8.08-0.307-16.2-0.347-24.293 c6.8,6.44,13.493,13.027,19.693,20.053C1071.532,126.084,1064.905,127.164,1058.399,128.124z M1084.999,130.097 c-3.187,0.96-6.48,1.507-9.787,1.733C1078.132,129.884,1081.585,129.684,1084.999,130.097z M1057.665,149.831 c10.227-3.84,20.627-7.453,31.28-9.947c2.427,10.64-0.293,21.693,2.4,32.293c-3.513,101.866,5.691,89.936-9.347,92.373 c0.053,0.773,0.16,2.307,0.213,3.08c1.6,0.213,3.2,0.427,4.813,0.653c0.907,1.907,1.84,3.8,2.787,5.707 c-3.253,3.44-7.813,1.987-11.8,1.24c-6.667,1.453-13.507,0.973-20.267,0.96c0.52-2.627,1.227-5.213,1.827-7.827 c2.133-0.613,4.253-1.24,6.4-1.88c-0.013-0.827-0.027-2.48-0.027-3.307h-4.973c-1.12-1.173-2.227-2.347-3.333-3.52 C1057.074,252.891,1056.163,158.759,1057.665,149.831z M1051.399,81.191c-0.067,2.56-0.133,5.107-0.24,7.667 c-2.267-1.427-4.013-3.44-5.547-5.587C1047.519,82.551,1049.452,81.844,1051.399,81.191z M1043.572,88.977 c3.133,1.72,5.413,4.493,7.773,7.12c-0.027,9.68,0.107,19.373-0.08,29.053c-2.88-2.64-6.587-5.053-7.787-8.933 C1043.212,107.151,1043.265,98.044,1043.572,88.977z M1048.225,130.137c-0.52,1.253-2.013,1.533-3,2.24 c-0.307-1.92-0.56-3.84-0.733-5.773C1045.745,127.751,1047.039,128.884,1048.225,130.137z M1043.452,161.564 c-0.467-3.68,2.16-6.507,4.013-9.347c1.733-0.133,3.48-0.253,5.24-0.36c-0.347,7.253,0.093,14.48,1.307,21.64 c-2.605,21.356,0.987,65.605-0.88,86.147c-3.6-0.653-6.747,0.72-9.16,3.333C1042.417,235.14,1043.455,162.572,1043.452,161.564z M1052.705,276.231c-2.68,0.12-5.36,0.187-8.027,0.16c0-1.813,0-3.64,0.013-5.453c1.587-0.067,3.187-0.12,4.8-0.16 c1.053-1.027,2.12-2.027,3.2-3.027C1052.692,270.577,1052.692,273.404,1052.705,276.231z M1040.212,73.631 c0.013,0.92,0.04,2.747,0.053,3.653c-4.84,0.747-9.733,0.267-14.587-0.093c-0.533,0.307-1.627,0.933-2.16,1.24 c-0.04-0.4-0.12-1.187-0.147-1.587C1029.079,76.311,1034.439,73.871,1040.212,73.631z M1036.812,85.217 c0.96,8.293,0.173,16.653,0.107,24.96c-6.6-5.84-12.573-12.36-18.747-18.627c-0.027-0.347-0.053-1.04-0.08-1.373 C1024.265,88.297,1030.479,86.471,1036.812,85.217z M1006.025,93.497c2.08-0.56,4.16-1.08,6.293-1.533 c29.173,32.794,24.644,20.972,25.76,34.813c-0.293,2.68,0.64,5.973-1.373,8.133c-1.573,1.973-4.36,1.067-6.507,1.427 c-7.947-8.653-15.893-17.293-23.72-26.027C1005.359,104.844,1006.412,99.071,1006.025,93.497z M1031.199,145.977 c-1.733,1.48-7.48,0.947-3.573-1.68C1028.839,143.471,1031.612,144.177,1031.199,145.977z M1006.399,118.577 c7.093,5.693,13.267,12.627,18.84,19.8c-5.787,1.893-11.733,4.76-17.96,3.373c-0.24-0.44-0.72-1.32-0.96-1.76 C1005.705,132.871,1005.905,125.684,1006.399,118.577z M1008.879,152.537c1.587-0.2,3.213-0.227,4.853-0.053 c0.2,0.827,0.587,2.493,0.787,3.32c2.44-0.773,4.907-1.493,7.4-2.173c-5.24,1.973-10.427,4.747-16.173,4.573 C1007.105,156.497,1008.119,154.591,1008.879,152.537z M1006.039,168.417c1.001-0.418,26.503-10.777,32-11.6 c1.045,21.401,2.373,87.766,0.453,108.56c-2.36,0.16-4.707,0.307-7.04,0.453c-0.013,0.827-0.067,2.48-0.08,3.307 c2.213,0.68,4.44,1.347,6.693,1.987c0.04,1.72,0.08,3.453,0.147,5.173c-5.785,2.024-29.655,1.24-30.667,1.12 c-2.173-1.36-1.347-4.187-1.747-6.307c2.253-1.227,4.56-2.387,6.92-3.453c-0.08-0.747-0.213-2.24-0.293-2.987 c-1.733,0.027-3.467,0.067-5.187,0.107C1003.656,255.207,1005.442,178.657,1006.039,168.417z M995.612,96.711 c0.933-0.2,2.827-0.613,3.76-0.813c-0.027,2.093-0.067,4.2-0.12,6.293C997.945,100.497,994.599,99.297,995.612,96.711z M992.799,103.817c2.267,1.947,4.427,4.027,6.533,6.16c-0.347,10.253,0.933,20.52,0.053,30.747 C991.621,134.777,992.073,136.58,992.799,103.817z M993.079,144.164c1.987-1.467,4.04,2.107,2.173,3.4 C993.239,148.884,991.332,145.497,993.079,144.164z M992.639,181.551c-0.72-4.173,1.547-7.787,4.32-10.667h3.76 c0,0,1.667,64.835,0.52,91.04c-3.32,0.067-7.6-1-8.573,3.333C991.286,240.517,992.639,181.554,992.639,181.551z M1000.252,277.564 c-0.76,1.907-3.667,0.973-5.213,1.6c0.08-2.187,0.16-4.387,0.267-6.573c1.88-0.413,3.72-1,5.493-1.813 C999.652,272.911,999.919,275.257,1000.252,277.564z M987.479,85.471c0.28,1.347,0.56,2.693,0.8,4.067 c-1.107,1.347-2.173,2.72-3.213,4.107c-1.907-0.16-3.16-1.587-4.547-2.68c-2.16-0.613-4.4-0.467-6.587-0.587 c-0.8,0.36-2.4,1.067-3.2,1.427C975.412,87.964,982.305,88.657,987.479,85.471z M985.932,99.924 c0.053,8.653,0.36,17.333-0.253,25.973c-6.56-6.507-13.347-12.88-18.92-20.267C972.945,103.151,979.319,100.937,985.932,99.924z M954.972,109.524c1.693-1.08,3.56-1.88,5.387-2.76c1.742,1.618,24.187,25.504,25.467,27.28c0.68,5.84,0.147,11.773-0.213,17.627 c-3.053,0.88-6.973,2.76-9.293-0.52c-7.2-8-15.16-15.533-21.093-24.52C954.732,120.951,954.599,115.204,954.972,109.524z M977.025,164.431c-0.973,1.76-1.907,1.827-2.787,0.173C975.172,162.857,976.105,162.791,977.025,164.431z M955.212,172.977 c3.493-1.053,8.08-1.8,10.853,1.227c1.013,0.067,3.04,0.2,4.053,0.28c-4.96,2.133-9.653,5.16-15.253,5.133 C955.612,177.484,956.545,175.124,955.212,172.977z M955.639,160.831c-0.293-1.8-0.52-3.587-0.76-5.373 c0.907-6.68-0.28-13.4,0.04-20.093c6.44,4.68,9.973,12.293,16.173,17.32c0.467,1.333,1.667,2.6,1.24,4.12 C966.959,158.857,961.465,160.817,955.639,160.831z M954.599,191.231c1.799-2.421,28.98-14.196,32.52-15.293 c0.903,84.285,2.191,58.13,0.307,91.453c-2.627-0.027-5.24-0.053-7.84-0.093c-0.067,1.48-0.12,2.973-0.147,4.453 c2.027,0.16,4.08,0.32,6.133,0.493c0.16,2.147-2.133,6.147,1.52,6.08c-6.413,2.36-13.133,0.373-19.707,0.893 c-4.16,0.253-8.253,1.053-12.4,1.427c-0.053-2.8-0.12-5.6-0.187-8.4c2.507-0.827,5.493-1.467,6.427-4.333 c-1.76-0.2-3.507-0.373-5.24-0.533C950.944,250.084,954.559,192.285,954.599,191.231z M947.759,112.204 c-0.373,2.333,0.227,5.547-2.987,5.827c-0.08-1.933-0.147-3.88-0.187-5.813C945.372,112.217,946.959,112.204,947.759,112.204z M942.079,120.964c7.714,7.15,5.379,1.332,5.427,38.32C940.614,153.475,941.986,155.929,942.079,120.964z M941.519,209.511 c-0.44-6.04,0.28-13.813,6.813-16.36c2.61,23.033,1.957,60.676,0.907,71.12c-3.36-0.373-6.44,0.56-7.96,3.72 c0.76-7.947-1.067-15.827-0.533-23.787C940.412,232.617,942.145,221.097,941.519,209.511z M949.839,280.377 c-2.52,0.147-5.053,0.267-7.547,0.413c1.28-3.947,4.067-6.987,6.933-9.853C949.105,274.097,949.065,277.284,949.839,280.377z M936.132,102.244c2.893,1.933,0.107,5.08-0.56,7.48c-5.8,0.707-10.413-3.573-15.987-3.32l-0.107-0.493 C925.012,104.697,930.439,102.497,936.132,102.244z M934.159,116.484c-0.227,9.4,2.373,18.987,0.013,28.227 c-7.107-6.253-12.133-14.427-18.72-21.2C921.332,120.324,927.772,118.364,934.159,116.484z M913.505,112.671 c-1.28,1.467-6.387,2.213-7.16,0C908.465,111.564,911.292,111.871,913.505,112.671z M903.279,127.817 c2.373-1.493,6.067-3.947,8.333-0.973c26.478,28.792,24.151,25.968,22.987,42.173c-0.24,3.8-4.827,4.2-7.4,5.867 c-8.067-9.347-15.76-19.04-23.267-28.84C902.585,140.137,903.759,133.857,903.279,127.817z M929.359,186.071 c-2.187,0.227-4.373,0.387-6.56,0.507C923.692,183.457,927.599,184.177,929.359,186.071z M903.559,155.057 c6.707,6.893,12.8,14.507,18.307,22.387c-5.613,3.027-11.56,5.347-17.613,7.307C902.452,174.977,903.612,164.937,903.559,155.057z M905.105,195.204c3.92-0.693,7.92,0.093,11.88,0.307c-4.547,1.56-9.2,2.827-13.973,3.4 C903.639,197.631,904.332,196.404,905.105,195.204z M935.025,199.791c0.294,2.244,2.04,27.933,1.307,70.453 c-2.107,0.053-4.187,0.107-6.253,0.16c0.133,3.427,0.253,6.84,0.36,10.267c5.267,1.253,1.373-5.307,4.84-6.213 c0.88,2.053,0.693,4.347,1,6.52c-11.027-0.747-22,1.853-33.053,0.853c0.413-2.92,0.8-5.84,0.987-8.773 c1.04-0.067,3.133-0.173,4.173-0.24c0.053-0.893,0.16-2.707,0.213-3.6c-1.48-0.093-2.947-0.173-4.4-0.24 c-3.436-11.069-2.321-38.536-1.187-50.12C902.835,216.533,901.4,216.202,935.025,199.791z M897.452,266.017 c-2.627,0.147-5.173,0.907-6.88,3.013c-0.663-38.613-0.577-47.847,6.627-48.867C898.372,235.404,898.732,250.764,897.452,266.017z M897.385,273.231c-0.053,2.933-0.16,5.867-0.227,8.8c-2.12,0.093-4.227,0.187-6.32,0.307c-0.013-1.96-0.053-3.92-0.12-5.867 c1.613,0.413,3.227,0.827,4.867,1.24C896.145,276.191,896.745,274.697,897.385,273.231z M894.305,131.297 c1.8,0.267,2.12,1.213,0.947,2.84C893.452,133.871,893.145,132.924,894.305,131.297z M896.705,176.257 c-0.227,2,0.68,4.907-1.867,5.68c-1.107-1.693-2.213-3.373-3.373-5.013c-0.147-12.307-0.32-24.613,0-36.907 C895.649,144.166,896.479,141.507,896.705,176.257z M890.639,115.151c2.787,1.467-3.933,4.387-3.987,1.56 C887.705,115.604,889.039,115.084,890.639,115.151z M886.425,121.551c-4.333-0.253-5.147,6.093-9.267,4.827 c0.99-0.654,0.593-0.322,3.187-2.747c-2.68-0.107-5.373-0.213-8.04-0.333C876.719,121.444,881.705,119.391,886.425,121.551z M883.185,166.697c-2.445-2.511-17.068-20.014-18.827-24.36c6.387-2.213,12.267-5.867,19.013-7.013 C883.252,145.777,883.559,156.244,883.185,166.697z M865.839,131.164l-0.027,0.76c-0.973,0.107-2.933,0.32-3.907,0.44 c0.32,0.747,0.987,2.253,1.32,3c1.28-0.533,2.587-1.067,3.893-1.587c-0.413,0.387-1.253,1.187-1.667,1.573 c-2.413,0.12-4.813,0.24-7.187,0.387c0.293-0.427,0.893-1.253,1.2-1.68c-1.973-0.56-3.987-1.173-5.133-3 C858.159,130.857,861.999,131.004,865.839,131.164z M858.812,145.684c8.64,9.04,15.827,19.467,24.453,28.547 c0.227,6.92,0.28,13.867,0,20.787c-2.453,1.147-4.92,2.293-7.347,3.467c-8.76-10.173-16.973-20.933-24.187-32.24 c0.6-5.973-0.147-11.933-0.547-17.893C853.612,147.231,856.012,145.497,858.812,145.684z M880.065,214.577 c-0.96,1.093-4.32,1.2-4.093-0.72C876.892,212.764,880.239,212.671,880.065,214.577z M851.545,178.817 c1.907-1.907,3.053,1.24,4.227,2.253c4.907,6.68,10.4,13.027,14.12,20.493c-5.6,2.293-10.787,5.88-16.907,6.6 C853.465,198.284,850.012,188.711,851.545,178.817z M863.665,226.257c-1.013,0.147-3.027,0.453-4.04,0.6 c-1.907,2.827-5.373,3.72-8.2,5.253c0.933-2.013,1.907-4,2.933-5.973c-0.76-0.067-2.28-0.2-3.04-0.267 c1.027-1.413,2.04-2.813,3.08-4.227c3.507,0.227,7.027,0.48,10.547,0.587c-2.613,0.987-5.8,1.387-7.44,3.933 C859.545,226.177,861.599,226.204,863.665,226.257z M851.372,245.511c10.44-7.107,21.853-12.653,32.893-18.787 c1.04,15.107,1.813,30.227,1.4,45.373c-2.093,0.147-4.173,0.28-6.24,0.4c0.067,0.773,0.187,2.32,0.24,3.093 c1.96,0.507,3.92,1.04,5.907,1.56c-1.151,8.009,0.695,5.715-33.173,6.173c-0.2-2.653-0.413-5.28-0.693-7.92 c2.747-0.16,5.747-0.387,6.787-3.4c-2.04-0.28-4.04-0.533-6.067-0.773C850.332,262.777,851.212,254.097,851.372,245.511z M846.452,267.097c-2.013,0.947-4.027,1.88-6.027,2.84c-0.387-6.36-1.187-12.96,1.853-18.853c1.16-0.8,2.347-1.587,3.533-2.373 C846.652,254.804,846.772,260.964,846.452,267.097z M846.025,277.871c-0.32,2.213-0.627,4.427-0.893,6.653 c-1.667,0.04-3.307,0.093-4.947,0.16c0.067-2.133,0.107-4.267,0.147-6.387C842.212,278.151,844.119,278.017,846.025,277.871z M840.785,161.831c1.88,2.2,4.453,4.427,3.92,7.68c-0.12,12.547,0.293,25.107-0.4,37.64c-1.427-2.16-3.72-4.08-3.52-6.893 c-0.16-5.507-1.613-11.013-0.667-16.52C841.601,173.739,839.563,173.062,840.785,161.831z M844.212,151.551 c0.987,1.107,1.4,4.053-0.493,4.427C841.265,155.617,841.519,150.231,844.212,151.551z M841.159,134.111 c-1.653,2.4-4.613,2.867-7.173,3.733c0.533,3.067,0.893,6.16,1.453,9.227c-4.84,1.027-9.813,1.093-14.733,1.133 c0.413-0.827,1.267-2.507,1.68-3.333c-2.8-0.013-5.573,0.027-8.36,0.08C832.798,141.123,825.657,138.842,841.159,134.111z M832.599,190.497c-2.013-1.28-3.893-2.827-5.107-4.907c-4.44-7.267-10.347-13.467-14.933-20.627 c6.427-3.12,12.867-6.28,19.667-8.52C833.025,167.777,832.652,179.151,832.599,190.497z M817.199,152.857 c-1.853,0.4-3.707,0.787-5.547,1.133c-0.147,0.773-0.427,2.32-0.56,3.08c-0.88,0.093-2.64,0.253-3.52,0.333 c1.173-0.68,2.173-1.56,3.027-2.627c-2.853,0.04-7.147,0.893-7.52-3.08C807.799,151.857,812.519,152.137,817.199,152.857z M800.665,188.231c0.173-5.973-0.013-12.013,0.72-17.96c1.827-1.213,3.867-2.04,5.853-2.96c8.373,11.08,17.64,21.587,24.933,33.427 c1,5.04,0.147,10.36,0.333,15.507c0.36,3.213-2.32,5.427-4.013,7.787c-1.227,0.32-2.427,0.653-3.627,1 c-7.213-8.8-13.053-18.627-19.96-27.667C803.012,194.604,800.132,191.911,800.665,188.231z M817.879,241.311 c0.747-0.28,2.267-0.853,3.013-1.133c0.28-0.787,0.813-2.347,1.08-3.12c3.853,0.147,4.667,3.867,6.547,6.453 c-2.093-0.013-4.16,0.027-6.227,0.213c1.413-0.747,2.373-1.893,2.88-3.44C822.719,240.577,820.292,240.951,817.879,241.311z M810.67,255.815l3.742-0.531c-2.28,1.56-4.747,2.88-7.44,3.547c0.987-0.693,2.987-2.08,3.987-2.773 C810.864,255.965,810.767,255.894,810.67,255.815z M811.652,253.164c-0.252,0.663-0.74,1.969-0.995,2.64 c-2.696-2.213-6.015,0.195-9.138-0.293c0.213-1.147,0.627-3.44,0.84-4.587c4.28-0.08,8.573-0.147,12.867,0.08 C814.332,251.537,812.545,252.617,811.652,253.164z M801.812,237.551c-1.947-4.573,1.653-9.813-0.947-14.173 c-0.627-6.88,0.627-13.733,0.56-20.613c6.24,8.347,12.347,16.853,17.733,25.8C813.612,231.857,808.412,236.804,801.812,237.551z M806.599,276.804c0.733-1.16,1.467-2.307,2.227-3.453c18.052-12.078,16.916-12.71,24.667-16.88c0.133,5.4-0.053,10.84,1.147,16.16 c-2.187,0.027-4.36,0.08-6.52,0.12c-0.253,0.96-0.76,2.88-1.013,3.853c1.52,0.787,3.107,1.413,4.76,1.933 c0.533,2.04,1.013,4.093,1.533,6.16c-11.067-0.773-21.987,2-33.053,1.133c-0.013-2.747-0.053-5.48-0.067-8.213 C802.372,277.337,804.492,277.071,806.599,276.804z M791.572,175.364c1.813,0.293,2.093,1.213,0.84,2.773 C790.599,177.831,790.319,176.911,791.572,175.364z M792.839,196.191c-0.48,13.013,0.253,26.04-0.587,39.04 c-1.173-2.173-2.627-4.387-2.2-6.987c0.373-14.107-0.493-28.213-0.12-42.32C793.879,187.897,792.679,192.604,792.839,196.191z M770.159,165.711c3.587-1.013,7.253-1.933,10.587-3.667l-2.787-1.187c4.067-2.213,8.253-4.2,12.533-5.987 c-1.227,4.893-7.053,4.36-10.907,5.48c2.747,2.707,6.347,6.48,4,10.547c-5.56,0.12-11.173,0.293-16.68-0.627 c1.067-0.36,3.213-1.053,4.293-1.413C770.839,167.817,770.492,166.764,770.159,165.711z M781.385,217.711 c-3.597-3.573-19.832-26.931-20.533-27.933c6.613-3.693,13.373-7.4,20.64-9.64C782.385,192.631,782.132,205.217,781.385,217.711z M766.372,175.657c-2.547,0.827-5.2,1.427-7.813,1.893c1.08,0.933,2.173,1.853,3.267,2.8c-2.24,0.387-4.48,0.707-6.72,0.96 c1.04-0.307,3.12-0.92,4.16-1.227c-1.667-1-3.613-1.44-5.533-1.547c-0.76-1.173-1.507-2.347-2.227-3.533 C756.465,174.937,761.425,175.191,766.372,175.657z M749.959,195.111c2.053-1.267,4.173-2.413,6.387-3.373 c36.055,54.764,22.547,29.89,25.693,58.76c-11.574,9.47-8.221,2.443-31.733-32.173C749.572,210.617,750.279,202.844,749.959,195.111 z M761.345,264.484c-0.853,0.067-2.56,0.213-3.413,0.28c-1.987,1.64-4.36,2.627-6.893,2.947c-1.84-12.147-0.747-24.467-0.853-36.68 c6.973,8.347,12.413,17.987,17.187,27.733c-2.08-2.747-4.24-5.773-8.093-5.653C760.065,256.871,761.385,260.577,761.345,264.484z M752.319,286.431c0.12-0.907,0.333-2.72,0.453-3.64c0.813-0.093,2.44-0.307,3.253-0.413c0.267-0.52,0.8-1.547,1.067-2.053 c3.187,0.04,6.347,0.64,9.547,0.813c-0.093,1.52-0.16,3.053-0.2,4.587c-5.253,2.267-11.04,1.493-16.6,1.893 C750.465,287.324,751.705,286.724,752.319,286.431z M758.732,317.351c0.227-3.427,3.253-2.453,5.453-1.613 c3.333,0.12,6.693,0.427,9.827,1.68c0.16,3.947,4.213,3.48,7,2.973c0.04,0.573,0.12,1.707,0.16,2.28 c2.08-0.187,4.173-0.347,6.28-0.507c0.48-0.787,1.427-2.347,1.907-3.133c0.347,0.813,1.027,2.427,1.373,3.24 c14.654,0.619,58.704-0.025,66,0.96c3.573-3.32,6.48-7.6,10.747-9.987c44.511-3.204,584.437-19.168,641.04-12.307 c0.693-0.147,2.08-0.427,2.773-0.573c0,0,241.805,3.13,255.6,4.747c0.4,0.213,1.2,0.653,1.587,0.88 c-3.133-0.347-6.56,0.04-6.48,4.013c2.48,0.387,4.827,1.387,7.173,2.333c-1.467,1.787-3,3.6-3.6,5.88 c0.787,0.027,2.36,0.053,3.147,0.08c-2.04,1.12-3.56,2.747-3.72,5.2c-4.24-0.12-8.813-1.173-12.653,1.147 c-1.533,2.627-3.44,5.013-5.387,7.333c-2.92-3.36-4.92-7.413-5.48-11.853c-2.92-1.587-6.027-0.84-6.147,2.947 c-3.44-1.427-7.147-0.96-10.64-0.173c-2.533-0.533-5.04-1.173-7.467-2c-3.053-0.173-6.107-0.347-8.987-1.373 c-3.493-4.813-9.52-4.613-14.813-4.093c-6.253,3.88-13.867,2.867-20.68,1.373c-2.64-0.693-5.027,0.653-7.28,1.747 c-5.053,2.24-10.813,1.613-16.027,2.493c-3.027,3.48-7.227,4.867-11.587,5.8c-1.293,2.333-0.533,4.96,0.933,7.013 c-1.773,2.987-3.84,5.88-7.04,7.427c-0.12,1.347-0.2,2.693-0.267,4.04c-2.853,0.773-4.693,2.973-5.653,5.667 c1.413,1.48,2.88,2.987,4.307,4.507c1.427-0.133,2.867-0.24,4.333-0.333c0.107,0.773,0.32,2.347,0.427,3.12 c-4.32,1.093-6.64-3.293-9.347-5.72c-0.813-0.133-2.44-0.4-3.253-0.533c-1.213-3.92-5.4-4.947-9.013-5.067 c-1.053-1.827-2.293-3.52-3.627-5.12c-1.507-0.013-2.987-0.027-4.453-0.053c-0.093,0.667-0.267,1.973-0.347,2.64 c-0.84-0.013-2.533-0.027-3.387-0.04c-0.347,2.387-2.453,2.747-4.427,3.12c0.013,0.507,0.053,1.52,0.08,2.04 c-4.56,0.093-8.96,1.293-13.453,1.827c-1,1.133-1.987,2.28-2.947,3.427c-1.987-0.507-3.987-0.84-5.987-1.093 c-1.4,1.44-2.813,2.853-4.2,4.293c-0.523,3.862-0.807,6.704-17.827,7.893c-2.495,0.242-6.259-5.326-7.867-7.613 c-0.097-3.293-5.162-13.166-4.507-25.56c-5.973,0.573-12.027,0.12-17.24-3.08c0.147-4.92-0.56-9.787-1.48-14.613 c-0.813,0-2.427-0.013-3.24-0.013c-0.32,4.027-0.92,8.04-1.573,12.04c-0.92-5.333,0.027-10.867-1.627-16.08 c-0.88,0-2.613-0.027-3.493-0.04c0.04,6.907,0.627,13.96-1.387,20.68l2.227-0.2c-4.227,1.467-8.68,1.813-13.093,1.32 c0.227,1.76,0.507,3.533,0.84,5.307c-0.307,2.387-0.573,4.787-0.76,7.187c-0.747,0.68-2.227,2.04-2.973,2.72 c-0.987-1.627-1.907-3.253-2.84-4.88c-8.68,1.733-17.507-1.12-26.067,1.653c-0.013,0.627-0.013,1.893-0.026,2.52 c-1.733-0.36-3.427-0.827-5.067-1.413c-8.547,0.387-16.933,2.28-25.453,2.787c-0.053,0.92-0.173,2.773-0.227,3.693 c-2.587,0.8-5.213,1.44-7.867,1.88c-0.093,1.92-0.147,3.84-0.187,5.773c-0.653,0.52-1.947,1.547-2.587,2.053 c-0.04,3.013-0.027,6.027,0.027,9.04c-2.053,0.027-4.067,0.08-6.08,0.147c-1.52,0.52-3.04,1.027-4.547,1.52 c-0.533,0.627-1.6,1.88-2.147,2.493c-1.573-0.08-3.147-0.147-4.68-0.213c0.013,2.44,0.04,4.88,0.107,7.333 c1.04,1.573,2.067,3.16,3.133,4.747c-1.373,0.68-2.507,3.8-4.147,2.587c-0.267-0.693-0.813-2.08-1.08-2.76 c-0.747-0.013-2.24-0.027-2.987-0.027c0.227,4.427-4.24,2.733-7.04,2.92c0.013,0.933,0.026,2.813,0.026,3.747 c24.603,0.302,1.807-1.498,28.04,3.68c4.68,1.533,9.307-2.92,13.867-0.24c3.587,2.107,7.453-2.4,10.8,0.333 c1.693,0.147,3.413,0.253,5.16,0.387c1.907,1.52,4.094,2.693,5.92,4.347c0.56,2.56-0.6,5.04-1.213,7.48 c-5.76-2.774-0.031,0.769-18.28-0.027c-0.533-0.573-1.613-1.733-2.147-2.32c-3.587-0.613-7.093-1.72-10.733-1.56 c-2.72,1.28-5.747,1.653-8.413,2.987c-1.88,2.28-3.52,4.76-5.627,6.853c-0.08,0.987-0.227,2.973-0.293,3.96 c-1.347-0.627-2.653-1.28-3.92-1.973c0.013-0.867,0.053-2.573,0.067-3.427c-4.953-2.237-2.503-1.086-8.827-2.667 c-8.112-0.182-21.063-8.688-23.467,3.52c-3.347,0.027-6.68,0.027-10,0.013c-0.56-0.707-1.68-2.147-2.24-2.853 c-3.787,0.893-7.467,2.213-11.307,2.773c-2.893-1.213-5.747-2.613-8.907-2.893c-1.573-4.533-6.64-4.893-10.613-5.84 c-7.747-2.587-16.053-2.107-24.053-1.6c-2.173,2.627-5.12,4.667-6.56,7.827c-3.747,0.88-6.693-1.36-6.427-5.267 c-0.733-0.067-2.213-0.2-2.96-0.267c-2.267-5.453-9.053-3.133-13.6-4.08c-3.053-2-1.507-6.253-2.093-9.307 c3.373,0.72,9.4-2.04,10.347,2.693c0.667,0,2.027-0.013,2.707-0.027c0.28-0.6,0.853-1.813,1.147-2.427 c10.48-0.76,21.013-0.173,31.52-0.28c-0.027-0.907-0.093-2.747-0.12-3.667c-15.52-0.067-31.053,0.12-46.573,0.053 c-0.08-0.84-0.267-2.52-0.347-3.36c-1.52-3.013-1.133-6.44-1.2-9.68c-1-1-1.973-1.987-2.933-2.973 c-0.893-0.027-2.667-0.08-3.547-0.093c-3.227,5.56,3.12,10.44,1.64,16.293c-2.507-0.267-6.027,0.613-6.16-2.947 c-1.587,0-3.16,0.013-4.72,0.04c0.027,2.08,0.067,4.173,0.12,6.267c3.987-0.133,7.987-0.107,11.987,0.107 c-0.013,2.68-0.013,5.373-0.013,8.067c-6.08,1.4-12.253,1.92-18.227-0.2c-1.267-2.92-4-4.96-7.24-4.88 c-4.947,0.213-9.04-2.707-13.36-4.6c-0.053-1.413-0.08-2.813-0.093-4.2c-1.36-0.627-2.467-1.52-3.307-2.693 c-3.907-0.84-6.467-4.027-8.2-7.387c-8.173,2.227-16.253,5.867-22.373,11.84c-3.08,0.693-6.427,0.68-9.493,0.013 c-1.441-1.455-4.581-5.1-7.533-9.24c-2.347,0.12-4.693,0.253-6.933,0.96c-3.537-0.982-5.171-1.519-23.2,3.12 c-4.667-2.853-10.093-2.92-15.36-2.373c-0.747,0.307-2.24,0.947-2.987,1.267c-1.173-2.213-1.88-4.613-2.453-7.027 c-4.907,1.347-9.707,3.453-14.893,3.027c-0.987,0.987-1.96,1.973-2.92,2.973c-0.053,0.987-0.147,2.973-0.187,3.96 c-1.72-0.667-3.413-1.36-5.093-2.067c-1.6-3.613-5.013-8.013-9.333-5.213c-0.2-3.293-3.733-3.627-6.067-4.787 c-2.507-0.96-4.747-2.747-7.453-3.027c-5.12-0.773-9.133,3.64-14.293,3.027c-0.533,0.493-1.573,1.48-2.107,1.973 c-15.177,3.593-2.009,6.384-20.693,7.013c-0.493-0.56-1.48-1.707-1.973-2.267c-3.307-0.973-6.733-2.453-10.213-1.427 c-3.213,1-7.52,1.307-8.72,5.053c-1.84,0.027-3.667,0.04-5.467,0.067c-0.733,2.147-2.813,3.093-4.547,4.253 c-0.093-0.827-0.293-2.48-0.387-3.307c-6.267,3.187-12.76,0.373-19.267,0.24c-0.52,0.68-1.547,2.013-2.067,2.693 c-4.133-3.84-9.373-1.227-14.227-1.107c-0.107,0.8-0.307,2.413-0.413,3.213c-0.387-0.787-1.133-2.36-1.507-3.147 c-3.067-0.747-6.413-2.52-9.107,0.067c-1.76-1.2-3.707-2.28-4.56-4.333c-2.427,0.04-4.88,0.187-7.08,1.293 c-0.627-2.013-1.867-3.72-3.173-5.307c-7.326,0.393-21.123-2.005-24.2,6.667c-1.64,0.427-3.28,0.867-4.88,1.333 c-0.013-0.987-0.027-2.96-0.04-3.947c-2.04-0.013-4.08-0.027-6.107-0.04c-0.533-0.627-1.587-1.88-2.12-2.493 c-1.627-0.04-3.24-0.08-4.853-0.12c1-5.253-4.933-4.88-7.613-7.733c-3.107,0.573-6.213,1.2-9.36,1.253 c-3.093,1.827-4.6,5.267-7.4,7.4c-2.08,1.72-4.92,2.853-5.64,5.72c-1.453,0-2.907-0.013-4.333-0.013 c-0.507,0.667-1.533,1.973-2.04,2.64c-2.813,0.053-5.613,0.107-8.4,0.08c-1.213-2.533-3.08-4.627-5.04-6.587 c-0.733-0.013-2.2-0.053-2.933-0.08c0.027,3.427-4.8,3.667-5.747,0.693c-0.213-0.827-0.627-2.493-0.827-3.32 c-1.907,0.04-3.8,0.093-5.68,0.147c-0.533,0.693-1.6,2.08-2.133,2.773c-1.933,0.04-3.84,0.08-5.747,0.133 c-2.36,1.613-4.587,3.427-7.133,4.747c-5.24,0.48-10.507,0.24-15.76,0.16c-0.52-0.693-1.573-2.093-2.093-2.787 c-0.773,0.093-2.293,0.253-3.053,0.333c-0.96,0.907-1.893,1.827-2.827,2.747c-1.6-4.04-6.227-5.453-9.667-7.493 c-6.013,0.44-12.973-1.747-18.107,2.24c-3.187,1.467-7.907,1-8.92,5.293c-4.747,0.493-9.467-0.28-13.987-1.733l0.4,2.187 c-1.053-1.387-2.093-2.773-3.093-4.173c-0.453-0.333-1.36-1.027-1.813-1.373c-3.507-6.413-11.933-6.653-18.2-5.08 c-4.48,1.467-9.107-1.08-13.587,0.307c-2.56,0.653-4.147,2.893-6,4.573c-2.933,1.173-5.733,2.613-8.587,3.96 c-0.48-0.64-1.427-1.933-1.907-2.573c-2.68-0.533-5.36-1-8.053-1.347c-1.507-1.36-3-2.72-4.453-4.093 c-3.653-0.76-7.36-1.133-11.053-1.387c-3.213,2.213-7.64,4.053-7.867,8.573c-3.707-1.88-8.32-1.627-11.52-4.467 c2.52-0.88,4.4-2.707,5.933-4.84c4.89-2.227,12.06-10.454,14.547-13.4c1.076-0.868,50.689-40.207,59.653-45.76 C748.999,318.324,753.799,316.764,758.732,317.351z M659.505,335.457c-0.653,0.16-1.973,0.48-2.627,0.64 c-1.547,1.667-3.2,3.227-4.867,4.76c-0.707,0.133-2.12,0.373-2.827,0.493c-0.133-5.147-0.36-10.293,0-15.44 c4.227,0.04,8.467,0.053,12.72-0.04c1.013-1.08,2.067-2.147,3.133-3.187c0.907,2.347,1.653,4.76,2.147,7.227 C664.399,331.404,661.145,332.564,659.505,335.457z M703.572,277.084c-0.88-0.053-2.653-0.133-3.533-0.173 c0.2-5.613-0.44-11.187-0.507-16.787c5.723,8.744,12.253,26.291,15.6,29.24c-4.787-1.16-9.72-0.747-14.587-0.733 c-0.107-2.373-0.227-4.747-0.307-7.12C702.932,281.351,703.785,279.564,703.572,277.084z M742.052,224.191 c-0.333,13.92,0.587,27.893-0.827,41.773c-2.003-4.307-2.43-3.88-1.84-53.187C743.159,215.391,741.825,220.297,742.052,224.191z M724.039,186.524c4.6-3.56,10.147-5.56,15.48-7.76c-1.387,3.627-4.933,5.107-8.413,6.027c1.547,3.373,5.387,6.933,2.413,10.64 c-1.347,0.573-2.693,1.16-4.013,1.773c-5.507-0.6-11.293,0.133-16.573-1.76c-0.347-0.44-1.053-1.32-1.4-1.773 c-0.693,0.107-2.093,0.307-2.787,0.4C713.865,191.631,719.772,190.471,724.039,186.524z M730.772,248.657 c-1.647-2.112-19.134-29.538-20.747-32.587c0.4-0.533,1.2-1.613,1.6-2.147c6.6-2.64,12.64-6.507,19.4-8.76 C731.519,219.644,731.545,234.191,730.772,248.657z M716.745,201.097c-16.264,4.269-13.145,4.252-16.333-0.573 C705.852,199.897,711.332,200.324,716.745,201.097z M699.279,222.751c-0.133-2.867,2.853-3.76,5.08-4.267 c24.018,44.274,29.97,36.214,24.747,56.773c-0.973-0.027-2.907-0.053-3.88-0.067c-0.56,1.587-1.387,3.133-1.56,4.84 c1.12,2.12,4.8,4.6,0.907,6.133c-5.253-3.867-5.547-11.347-10.36-15.747c-5.333-8.04-10.587-16.24-14.347-25.16 C699.145,237.804,699.199,230.231,699.279,222.751z M696.945,323.524c1.707-1.053,3.4-2.147,5.053-3.293 c4.013-0.04,8.027,0.187,12.04,0.48c-5.453,3.16-11.36,5.293-17.173,7.653C696.879,326.751,696.905,325.137,696.945,323.524z M689.212,241.137c2.427,8.8,1.267,18.08,0.933,27.08c0.613,2.347,0.507,4.64-0.867,6.707 C689.385,263.657,688.092,252.391,689.212,241.137z M688.625,203.977c-0.867,1.32-1.733,2.64-2.587,3.96 c-3.293,0.84-6.507,1.933-9.773,2.853C680.012,207.897,684.305,205.857,688.625,203.977z M672.759,217.004l0.173-1.613 c-0.707,0.093-2.107,0.28-2.813,0.36c1.293-0.493,2.587-0.987,3.893-1.48c0.627,0.12,1.88,0.347,2.52,0.453 c1.133-2.507,3.64-1.293,5.653-1.013l-3.8,0.92c1.6,1.32,3.28,3.2,5.747,1.907c-0.733,1.56-1.093,3.373-2.387,4.587 c-5.773,0.813-11.64,0.267-17.427-0.213c4.52-1.293,9.12-2.373,13.813-2.76c0.053-0.76,0.147-2.267,0.2-3.027 C675.892,214.631,674.039,215.257,672.759,217.004z M679.452,230.604c-0.164,27.882,2.606,14.307-0.547,46.973 c0.32,0.76,0.96,2.293,1.267,3.053c-1.413-1.773-2.52-3.773-3.107-5.96c-4.906-8.515-9.768-12.648-19.493-34 C664.585,236.791,672.159,233.964,679.452,230.604z M648.079,244.271c4.72,0.2,5.773,5.213,7.92,8.507 c4.893,8.027,9.693,16.347,12.307,25.413c2.56,3.627,4.173,7.787,6.293,11.667c-4.907,1.307-9.987,1.52-15.027,1.467 c-0.6-4.493-5.747-7.2-4.68-11.973c-0.573-0.48-1.72-1.413-2.293-1.893C649.872,271.06,646.459,270.185,648.079,244.271z M649.745,360.631c4.267,0,8.533-0.013,12.8,0.293c-3.187,1.16-6.813,1.373-9.427,3.733c-2.667,0.213-5.16,0.947-6.827,3.133 C647.212,365.297,648.465,362.951,649.745,360.631z M632.839,240.924c-1.84,2.48-5.32,2.227-7.293,4.453 c-3.08-2.147-6.8-1.653-10.32-1.68C621.092,242.804,626.985,241.991,632.839,240.924z M605.999,262.737 c7.787-3.28,15.387-7.427,23.64-9.4c0.533,9.347-1.107,18.653-0.387,27.987c-2.36,0.267-4.707,0.52-7.053,0.747 c0,0.707,0,2.12,0.013,2.813c2.347,0.6,4.707,1.24,7.053,1.88c0,1.067,0.013,3.213,0.013,4.293c-2.96,1.84-6.453,1.64-9.787,1.56 c-3.707-10.04-10.333-18.72-14.427-28.56C605.292,263.724,605.772,263.071,605.999,262.737z M609.719,293.484 c-1.293-0.347-2.587-0.667-3.867-0.973c-1.293-2.48-2.44-5.04-3.307-7.68l-1.373,0.613c0.64-0.467,1.92-1.4,2.547-1.88 c-0.573-2.84-3.507-3.987-5.947-4.813c-0.24-4.04-0.427-8.08-0.547-12.107C600.826,271.412,606.652,289.135,609.719,293.484z M572.519,369.657c-4.493,0.293-9.373,2.8-13.493-0.107c-0.053-1.893-0.133-3.8-0.2-5.693c5.333-0.813,10.88-2.373,16.133-0.173 C574.145,365.684,573.332,367.671,572.519,369.657z M569.012,323.151c1.96,0.107,3.933,0.227,5.907,0.36 c-1.027,2.733-2.133,5.467-3.587,8.027C569.212,329.217,569.079,326.111,569.012,323.151z M561.945,271.591 c12.466,6.856,10.365,13.094,13.627,22.36c-3.547-0.04-7.107,0.24-10.613-0.267c-2.533-4.613-4.8-9.453-6.573-14.427 c-1.053-1.053-2.107-2.093-3.16-3.147C557.572,274.777,559.665,273.057,561.945,271.591z M553.199,323.324 c1.853,0.027,3.733-0.027,5.6,0.213c2.88,4.853,4.867,10.227,6.467,15.64c0.773,2.52-0.2,5.04-0.96,7.44h-3.187 C558.079,339.017,551.759,332.044,553.199,323.324z M381.225,301.737c-0.88,0.053-2.627,0.133-3.507,0.173 c-0.027-2.173-0.053-4.347-0.08-6.52C381.625,295.204,380.959,298.977,381.225,301.737z M75.905,309.857 c2.402-0.53,2.838,1.145,8.32,2.8c-0.307,0.68-0.613,1.347-0.947,2.027c-2.347-1.8-5.187-0.6-7.76-0.387 c0.72-0.24,2.173-0.733,2.893-0.987C77.239,312.297,76.399,311.151,75.905,309.857z"/> <path d="M1030.375,136.425C1030.565,139.765,1033.285,134.825,1030.375,136.425"/> <path d="M1690.279,108.431C1690.679,112.857,1694.105,106.204,1690.279,108.431"/> <path d="M1032.995,185.625C1031.445,188.565,1036.335,185.815,1032.995,185.625"/> <path d="M1533.245,185.535C1531.315,188.245,1536.535,186.135,1533.245,185.535"/> <path d="M1032.305,194.605C1032.745,195.205,1032.745,195.205,1032.305,194.605"/> <path d="M994.295,202.595C992.645,205.485,997.625,202.915,994.295,202.595"/> <path d="M738.185,265.685C738.825,266.065,738.825,266.065,738.185,265.685"/> <path d="M604.365,285.705C604.905,286.195,604.905,286.195,604.365,285.705"/> <path d="M459.335,293.635C459.865,294.205,459.865,294.205,459.335,293.635"/> <path d="M727.435,381.425C727.475,384.725,730.495,379.985,727.435,381.425"/> <path d="M396.175,383.595C396.665,384.155,396.665,384.155,396.175,383.595"/> <path d="M818.095,387.625C816.595,390.675,821.385,387.755,818.095,387.625"/> <path d="M1475.245,394.615C1475.805,395.125,1475.805,395.125,1475.245,394.615z"/> </svg>